<?xml version="1.0" encoding="UTF-8"?>
<svg version="1.1" xmlns="http://www.w3.org/2000/svg" width="608" height="410">
<path d="M0 0 C1.12591553 0.00523682 2.25183105 0.01047363 3.41186523 0.01586914 C4.62680664 0.0190918 5.84174805 0.02231445 7.09350586 0.02563477 C8.37290039 0.03401367 9.65229492 0.04239258 10.97045898 0.05102539 C12.2537207 0.05553711 13.53698242 0.06004883 14.85913086 0.06469727 C18.04211921 0.07652994 21.22501661 0.09301471 24.40795898 0.11352539 C24.90295898 3.08352539 24.90295898 3.08352539 25.40795898 6.11352539 C27.71795898 6.44352539 30.02795898 6.77352539 32.40795898 7.11352539 C32.57231445 8.18280273 32.57231445 8.18280273 32.73999023 9.27368164 C34.01029747 16.94716354 35.56544462 22.88743549 40.40795898 29.11352539 C40.40795898 29.77352539 40.40795898 30.43352539 40.40795898 31.11352539 C45.16593398 33.24863216 50.0476489 34.0847347 55.14428711 34.96899414 C60.19891022 35.90447663 60.19891022 35.90447663 62.40795898 38.11352539 C62.53295898 40.73852539 62.53295898 40.73852539 62.40795898 43.11352539 C64.38795898 43.11352539 66.36795898 43.11352539 68.40795898 43.11352539 C69.75843937 45.81448616 69.53759475 47.94079056 69.54077148 50.96118164 C69.54206055 52.12327148 69.54334961 53.28536133 69.54467773 54.48266602 C69.54081055 55.70147461 69.53694336 56.9202832 69.53295898 58.17602539 C69.53682617 59.39870117 69.54069336 60.62137695 69.54467773 61.88110352 C69.54274414 63.62230469 69.54274414 63.62230469 69.54077148 65.39868164 C69.53964355 66.46997314 69.53851563 67.54126465 69.53735352 68.64501953 C69.40795898 71.11352539 69.40795898 71.11352539 68.40795898 72.11352539 C64.72008872 72.02651575 61.06829142 71.55333278 57.40795898 71.11352539 C56.18979492 70.98010742 56.18979492 70.98010742 54.94702148 70.84399414 C49.49834555 70.02035708 44.95328777 68.04201774 40.08374023 65.52758789 C39.4394104 65.19992432 38.79508057 64.87226074 38.13122559 64.53466797 C36.55453186 63.73206727 34.9809244 62.92340858 33.40795898 62.11352539 C33.39987213 62.80764023 33.39178528 63.50175507 33.38345337 64.21690369 C33.30516806 70.79236569 33.21777825 77.36763834 33.1204319 83.94284725 C33.07071174 87.32237161 33.02438204 90.70186834 32.98608398 94.08154297 C32.94020197 97.97649586 32.88224504 101.87111476 32.82202148 105.76586914 C32.81047028 106.96622299 32.79891907 108.16657684 32.78701782 109.40330505 C32.54411723 123.34558982 29.23382598 136.69281891 19.40795898 147.11352539 C16.51970265 149.6143327 13.50959561 151.88598636 10.40795898 154.11352539 C9.76987305 154.63043945 9.13178711 155.14735352 8.47436523 155.67993164 C-1.33577563 162.48583277 -15.415049 162.9878782 -26.90063477 161.68383789 C-37.92511638 159.34773583 -47.40272608 152.47918704 -55.51391602 144.98071289 C-57.55815435 143.0739733 -57.55815435 143.0739733 -59.85766602 141.49633789 C-60.43000977 141.04000977 -61.00235352 140.58368164 -61.59204102 140.11352539 C-61.59204102 139.45352539 -61.59204102 138.79352539 -61.59204102 138.11352539 C-62.25204102 138.11352539 -62.91204102 138.11352539 -63.59204102 138.11352539 C-71.47941852 129.29365005 -74.30103569 117.28983618 -74.71313477 105.71118164 C-74.5316773 102.77311499 -74.15133579 100.00254446 -73.59204102 97.11352539 C-73.40254883 96.08485352 -73.21305664 95.05618164 -73.01782227 93.99633789 C-70.04222478 80.20194955 -61.25764814 69.8316796 -49.59204102 62.11352539 C-39.931892 56.74863294 -29.58092168 55.04143947 -18.59204102 56.11352539 C-16.59204102 58.11352539 -16.59204102 58.11352539 -16.59204102 62.11352539 C-15.62266602 62.25790039 -14.65329102 62.40227539 -13.65454102 62.55102539 C-10.59204102 63.11352539 -10.59204102 63.11352539 -9.59204102 64.11352539 C-9.50446099 66.11317521 -9.48507525 68.11588649 -9.49438477 70.11743164 C-9.49921875 71.93984375 -9.49921875 71.93984375 -9.50415039 73.79907227 C-9.51671875 75.71816406 -9.51671875 75.71816406 -9.52954102 77.67602539 C-9.53405273 78.95928711 -9.53856445 80.24254883 -9.54321289 81.56469727 C-9.55504556 84.74768561 -9.57153033 87.93058301 -9.59204102 91.11352539 C-12.94148488 91.80609269 -16.18134262 92.28989379 -19.59204102 92.55102539 C-25.54050388 93.16699048 -28.84238302 93.92103733 -32.77954102 98.61352539 C-36.53043418 103.99693164 -38.11963059 109.31811063 -37.20922852 115.86743164 C-36.22950498 119.73565043 -35.31091228 122.39465413 -32.46704102 125.23852539 C-27.14112202 126.85945726 -22.00201058 126.90758875 -16.77954102 124.86352539 C-13.77825144 123.21575856 -11.90125115 121.59378813 -9.59204102 119.11352539 C-8.93204102 119.11352539 -8.27204102 119.11352539 -7.59204102 119.11352539 C-5.04693503 111.97491193 -4.15218724 105.63276513 -4.17553711 98.08007812 C-4.16695175 97.02683853 -4.15836639 95.97359894 -4.14952087 94.88844299 C-4.12462328 91.4412654 -4.1200979 87.99437813 -4.11547852 84.54711914 C-4.10115898 82.14241159 -4.08540025 79.73771222 -4.06826782 77.33302307 C-4.02654834 71.02885553 -4.00145676 64.72473876 -3.98077393 58.42047119 C-3.94485024 48.29845357 -3.88413084 38.17656066 -3.8222847 28.05467415 C-3.80314458 24.51532655 -3.79145467 20.97601256 -3.78085327 17.43663025 C-3.77064901 15.28522669 -3.76029176 13.13382384 -3.74975586 10.98242188 C-3.74871353 9.99184784 -3.7476712 9.0012738 -3.74659729 7.98068237 C-3.74114395 7.08503067 -3.73569061 6.18937897 -3.73007202 5.2665863 C-3.72751593 4.48406714 -3.72495983 3.70154799 -3.72232628 2.89531612 C-3.50976533 -0.01168285 -2.9233102 0.12803421 0 0 Z " fill="#FBFAFB" transform="translate(306.592041015625,104.886474609375)"/>
<path d="M0 0 C1.12591553 0.00523682 2.25183105 0.01047363 3.41186523 0.01586914 C4.62680664 0.0190918 5.84174805 0.02231445 7.09350586 0.02563477 C8.37290039 0.03401367 9.65229492 0.04239258 10.97045898 0.05102539 C12.2537207 0.05553711 13.53698242 0.06004883 14.85913086 0.06469727 C18.04211921 0.07652994 21.22501661 0.09301471 24.40795898 0.11352539 C24.90295898 3.08352539 24.90295898 3.08352539 25.40795898 6.11352539 C27.71795898 6.44352539 30.02795898 6.77352539 32.40795898 7.11352539 C32.57231445 8.18280273 32.57231445 8.18280273 32.73999023 9.27368164 C34.01029747 16.94716354 35.56544462 22.88743549 40.40795898 29.11352539 C40.40795898 29.77352539 40.40795898 30.43352539 40.40795898 31.11352539 C36.87396004 29.6350963 34.85050382 27.6728976 32.34545898 24.80102539 C31.67385742 24.04176758 31.00225586 23.28250977 30.31030273 22.50024414 C25.99235877 17.08286476 25.40795898 15.57431767 25.40795898 8.11352539 C18.80795898 8.11352539 12.20795898 8.11352539 5.40795898 8.11352539 C5.43414307 11.39862061 5.46032715 14.68371582 5.48730469 18.06835938 C5.57024873 28.93678152 5.62542082 39.80521785 5.66701984 50.67387295 C5.69308459 57.26191931 5.72842692 63.84964067 5.78515625 70.4375 C5.83958539 76.79823554 5.86940301 83.15865896 5.8823452 89.51960945 C5.89156535 91.94325738 5.90957022 94.36688873 5.93660927 96.79040337 C5.97304277 100.19202112 5.97789811 103.59235834 5.97558594 106.99414062 C5.99356232 107.99036438 6.0115387 108.98658813 6.03005981 110.01300049 C5.98054921 116.76918503 4.51596436 121.67878845 0.40795898 127.11352539 C-6.12853071 133.18996266 -12.96565576 134.58601226 -21.74829102 134.43383789 C-27.58491402 133.77641607 -30.65030761 130.0552588 -34.59204102 126.11352539 C-35.37579102 125.70102539 -36.15954102 125.28852539 -36.96704102 124.86352539 C-42.38983028 121.24833255 -46.23648288 115.48464861 -47.59204102 109.11352539 C-48.28565064 102.98664036 -46.80050964 98.27906578 -43.59204102 93.11352539 C-39.53672733 88.58689195 -34.30265115 84.42758957 -28.09985352 83.90258789 C-24.29653044 83.84746727 -21.22143498 83.9037274 -17.59204102 85.11352539 C-17.59204102 78.18352539 -17.59204102 71.25352539 -17.59204102 64.11352539 C-29.97026613 66.19584363 -41.71077585 68.52411948 -50.59204102 78.11352539 C-51.20047852 78.74774414 -51.80891602 79.38196289 -52.43579102 80.03540039 C-60.85976204 89.33355709 -65.00586286 98.8389571 -64.90454102 111.42602539 C-64.89608154 112.536875 -64.89608154 112.536875 -64.88745117 113.67016602 C-64.64321217 124.78424984 -61.59312296 134.11244345 -53.59204102 142.11352539 C-53.96704102 144.23852539 -53.96704102 144.23852539 -54.59204102 146.11352539 C-55.76455412 145.16235405 -56.92991117 144.2023553 -58.09204102 143.23852539 C-58.74172852 142.70485352 -59.39141602 142.17118164 -60.06079102 141.62133789 C-60.56610352 141.12375977 -61.07141602 140.62618164 -61.59204102 140.11352539 C-61.59204102 139.45352539 -61.59204102 138.79352539 -61.59204102 138.11352539 C-62.25204102 138.11352539 -62.91204102 138.11352539 -63.59204102 138.11352539 C-71.47941852 129.29365005 -74.30103569 117.28983618 -74.71313477 105.71118164 C-74.5316773 102.77311499 -74.15133579 100.00254446 -73.59204102 97.11352539 C-73.40254883 96.08485352 -73.21305664 95.05618164 -73.01782227 93.99633789 C-70.04222478 80.20194955 -61.25764814 69.8316796 -49.59204102 62.11352539 C-39.931892 56.74863294 -29.58092168 55.04143947 -18.59204102 56.11352539 C-16.59204102 58.11352539 -16.59204102 58.11352539 -16.59204102 62.11352539 C-15.62266602 62.25790039 -14.65329102 62.40227539 -13.65454102 62.55102539 C-10.59204102 63.11352539 -10.59204102 63.11352539 -9.59204102 64.11352539 C-9.50446099 66.11317521 -9.48507525 68.11588649 -9.49438477 70.11743164 C-9.49921875 71.93984375 -9.49921875 71.93984375 -9.50415039 73.79907227 C-9.51671875 75.71816406 -9.51671875 75.71816406 -9.52954102 77.67602539 C-9.53405273 78.95928711 -9.53856445 80.24254883 -9.54321289 81.56469727 C-9.55504556 84.74768561 -9.57153033 87.93058301 -9.59204102 91.11352539 C-12.94148488 91.80609269 -16.18134262 92.28989379 -19.59204102 92.55102539 C-25.54050388 93.16699048 -28.84238302 93.92103733 -32.77954102 98.61352539 C-36.53043418 103.99693164 -38.11963059 109.31811063 -37.20922852 115.86743164 C-36.22950498 119.73565043 -35.31091228 122.39465413 -32.46704102 125.23852539 C-27.14112202 126.85945726 -22.00201058 126.90758875 -16.77954102 124.86352539 C-13.77825144 123.21575856 -11.90125115 121.59378813 -9.59204102 119.11352539 C-8.93204102 119.11352539 -8.27204102 119.11352539 -7.59204102 119.11352539 C-5.04693503 111.97491193 -4.15218724 105.63276513 -4.17553711 98.08007812 C-4.16695175 97.02683853 -4.15836639 95.97359894 -4.14952087 94.88844299 C-4.12462328 91.4412654 -4.1200979 87.99437813 -4.11547852 84.54711914 C-4.10115898 82.14241159 -4.08540025 79.73771222 -4.06826782 77.33302307 C-4.02654834 71.02885553 -4.00145676 64.72473876 -3.98077393 58.42047119 C-3.94485024 48.29845357 -3.88413084 38.17656066 -3.8222847 28.05467415 C-3.80314458 24.51532655 -3.79145467 20.97601256 -3.78085327 17.43663025 C-3.77064901 15.28522669 -3.76029176 13.13382384 -3.74975586 10.98242188 C-3.74871353 9.99184784 -3.7476712 9.0012738 -3.74659729 7.98068237 C-3.74114395 7.08503067 -3.73569061 6.18937897 -3.73007202 5.2665863 C-3.72751593 4.48406714 -3.72495983 3.70154799 -3.72232628 2.89531612 C-3.50976533 -0.01168285 -2.9233102 0.12803421 0 0 Z " fill="#67BEC4" transform="translate(306.592041015625,104.886474609375)"/>
<path d="M0 0 C0.66644531 0.2990625 1.33289063 0.598125 2.01953125 0.90625 C6.16034511 2.42581472 10.4070875 3.10435169 14.73632812 3.85546875 C19.79095124 4.79095124 19.79095124 4.79095124 22 7 C22.125 9.625 22.125 9.625 22 12 C23.98 12 25.96 12 28 12 C29.35048039 14.70096077 29.12963577 16.82726517 29.1328125 19.84765625 C29.13410156 21.00974609 29.13539063 22.17183594 29.13671875 23.36914062 C29.13285156 24.58794922 29.12898438 25.80675781 29.125 27.0625 C29.12886719 28.28517578 29.13273437 29.50785156 29.13671875 30.76757812 C29.13542969 31.92837891 29.13414062 33.08917969 29.1328125 34.28515625 C29.13168457 35.35644775 29.13055664 36.42773926 29.12939453 37.53149414 C29 40 29 40 28 41 C24.31212973 40.91299036 20.66033243 40.43980739 17 40 C15.78183594 39.86658203 15.78183594 39.86658203 14.5390625 39.73046875 C9.09038657 38.90683169 4.54532878 36.92849235 -0.32421875 34.4140625 C-0.96854858 34.08639893 -1.61287842 33.75873535 -2.2767334 33.42114258 C-3.85342712 32.61854188 -5.42703458 31.80988319 -7 31 C-7.00808685 31.69411484 -7.01617371 32.38822968 -7.02450562 33.1033783 C-7.10279092 39.6788403 -7.19018073 46.25411295 -7.28752708 52.82932186 C-7.33724725 56.20884622 -7.38357695 59.58834295 -7.421875 62.96801758 C-7.46775701 66.86297047 -7.52571394 70.75758937 -7.5859375 74.65234375 C-7.59748871 75.8526976 -7.60903992 77.05305145 -7.62094116 78.28977966 C-7.86384176 92.23206443 -11.174133 105.57929352 -21 116 C-23.88825633 118.50080731 -26.89836338 120.77246097 -30 123 C-30.63808594 123.51691406 -31.27617187 124.03382813 -31.93359375 124.56640625 C-41.74373461 131.37230738 -55.82300799 131.87435281 -67.30859375 130.5703125 C-75.47632814 128.83955891 -86.26041507 124.10937739 -91 117 C-82 120 -82 120 -79.203125 121.08203125 C-75.38967271 122.17491087 -71.80857838 122.34358144 -67.875 122.3125 C-67.12581299 122.30686035 -66.37662598 122.3012207 -65.60473633 122.29541016 C-53.85374795 122.04129393 -41.78786489 118.84800667 -32.71484375 111.03125 C-20.49796961 98.03758039 -16.58243078 83.81732464 -16.48828125 66.359375 C-16.46135445 64.48708221 -16.46135445 64.48708221 -16.43388367 62.57696533 C-16.38019317 58.63467677 -16.34601733 54.69250637 -16.3125 50.75 C-16.28088457 48.0585543 -16.24498966 45.36717135 -16.20898438 42.67578125 C-16.12449064 36.1172936 -16.05596811 29.55878985 -16 23 C-12.80421398 23.74213346 -10.27115566 24.81843426 -7.375 26.375 C1.67312138 30.95197368 9.90338967 32.41298777 20 33 C20 26.07 20 19.14 20 12 C15.545 11.01 15.545 11.01 11 10 C8.2027729 8.58551888 6.4205776 7.06006605 4 5 C4 4.34 4 3.68 4 3 C2.68 3 1.36 3 0 3 C0 2.01 0 1.02 0 0 Z " fill="#E52053" transform="translate(347,136)"/>
<path d="M0 0 C1 1 1 1 1.0625 4.5625 C1.041875 5.696875 1.02125 6.83125 1 8 C-0.39798828 8.22042969 -0.39798828 8.22042969 -1.82421875 8.4453125 C-13.24038702 10.45381935 -23.86316983 13.21438602 -32 22 C-32.6084375 22.63421875 -33.216875 23.2684375 -33.84375 23.921875 C-42.26772103 33.2200317 -46.41382185 42.72543171 -46.3125 55.3125 C-46.30404053 56.42334961 -46.30404053 56.42334961 -46.29541016 57.55664062 C-46.05117115 68.67072445 -43.00108194 77.99891806 -35 86 C-35.375 88.125 -35.375 88.125 -36 90 C-37.1725131 89.04882866 -38.33787015 88.08882991 -39.5 87.125 C-40.1496875 86.59132813 -40.799375 86.05765625 -41.46875 85.5078125 C-41.9740625 85.01023437 -42.479375 84.51265625 -43 84 C-43 83.34 -43 82.68 -43 82 C-43.66 82 -44.32 82 -45 82 C-52.8873775 73.18012466 -55.70899468 61.17631079 -56.12109375 49.59765625 C-55.93963628 46.6595896 -55.55929478 43.88901907 -55 41 C-54.81050781 39.97132813 -54.62101563 38.94265625 -54.42578125 37.8828125 C-51.45018377 24.08842416 -42.66560713 13.71815421 -31 6 C-21.15018987 0.52977672 -11.16938855 -0.7147079 0 0 Z " fill="#6BC8CE" transform="translate(288,161)"/>
<path d="M0 0 C4.35990873 -0.07418046 8.71948279 -0.12861544 13.07983398 -0.16479492 C14.56297199 -0.17987768 16.04606544 -0.20034689 17.52905273 -0.22631836 C19.66140745 -0.26272616 21.79317235 -0.27973073 23.92578125 -0.29296875 C25.85031128 -0.31653442 25.85031128 -0.31653442 27.8137207 -0.34057617 C31 0 31 0 32.96557617 1.29174805 C34.68961687 4.13883627 33.58202071 6.85708819 33 10 C33.495 10.495 33.495 10.495 34 11 C34.08700342 12.63472882 34.10701063 14.27314055 34.09765625 15.91015625 C34.09443359 16.89951172 34.09121094 17.88886719 34.08789062 18.90820312 C34.07532227 20.46958008 34.07532227 20.46958008 34.0625 22.0625 C34.05798828 23.10728516 34.05347656 24.15207031 34.04882812 25.22851562 C34.03699913 27.8190666 34.02051689 30.40950559 34 33 C30.34811918 34.07174763 27.73567172 33.76411467 24 33 C24 24.66666667 24 16.33333333 24 8 C23.67 8.33 23.34 8.66 23 9 C21.02 9 19.04 9 17 9 C17 16.92 17 24.84 17 33 C10 34 10 34 7 33 C6.67 25.08 6.34 17.16 6 9 C4.02 9 2.04 9 0 9 C-1.125 2.25 -1.125 2.25 0 0 Z " fill="#EAE9E9" transform="translate(233,271)"/>
<path d="M0 0 C0.33 1.32 0.66 2.64 1 4 C1.969375 4.144375 2.93875 4.28875 3.9375 4.4375 C7 5 7 5 8 6 C8.08758003 7.99964982 8.10696576 10.0023611 8.09765625 12.00390625 C8.09443359 13.21884766 8.09121094 14.43378906 8.08789062 15.68554688 C8.07532227 17.60463867 8.07532227 17.60463867 8.0625 19.5625 C8.05798828 20.84576172 8.05347656 22.12902344 8.04882812 23.45117188 C8.03699545 26.63416022 8.02051068 29.81705762 8 33 C4.65055614 33.6925673 1.4106984 34.1763684 -2 34.4375 C-7.94846286 35.05346509 -11.25034201 35.80751194 -15.1875 40.5 C-18.95232331 45.88943698 -20.43405608 51.30547615 -19.6640625 57.859375 C-19.19380577 60.27199646 -18.6550969 62.63157276 -18 65 C-21.18408195 64.40761266 -23.36465118 63.76309091 -25.4765625 61.2265625 C-29.13313426 55.47441161 -30.56594824 50.9045685 -30 44 C-27.62625006 35.79197309 -23.08666357 31.72444238 -16.1875 27.125 C-10.88286706 25.25277661 -5.3388981 25.2203673 0 27 C0 18.09 0 9.18 0 0 Z " fill="#E72052" transform="translate(289,163)"/>
<path d="M0 0 C3.36659976 2.12701491 4.59871905 3.78034854 6.1796875 7.4921875 C7.5618901 16.39971538 7.5618901 16.39971538 5.4296875 20.8671875 C1.72349591 25.80877629 1.72349591 25.80877629 -1.4453125 26.8046875 C-7.37117702 27.46311689 -12.83066699 27.83076025 -18.2578125 25.1171875 C-21.4595721 22.53228067 -23.86234179 19.96914791 -24.73828125 15.8671875 C-24.91129435 10.98986593 -24.15970453 7.14239257 -21.2578125 3.1171875 C-15.20682109 -1.77510342 -7.35783811 -2.87694016 0 0 Z M-13.2578125 11.1171875 C-12.68328504 15.04794394 -12.68328504 15.04794394 -10.2578125 18.1171875 C-6.96066457 17.78747271 -5.6351286 17.4945036 -3.2578125 15.1171875 C-3.58752729 11.82003957 -3.8804964 10.4945036 -6.2578125 8.1171875 C-9.77497553 8.1171875 -10.62902998 8.94164335 -13.2578125 11.1171875 Z " fill="#E1E0E1" transform="translate(340.2578125,277.8828125)"/>
<path d="M0 0 C1.92121607 4.95913898 -0.52589469 9.02437899 -2.421875 13.67578125 C-6.46524669 22.19288351 -12.42675851 27.5965412 -20 33 C-20.95519531 33.7734375 -20.95519531 33.7734375 -21.9296875 34.5625 C-31.73836202 41.37305137 -45.82212036 41.87445358 -57.30859375 40.5703125 C-65.47632814 38.83955891 -76.26041507 34.10937739 -81 27 C-72 30 -72 30 -69.203125 31.08203125 C-65.38967271 32.17491087 -61.80857838 32.34358144 -57.875 32.3125 C-57.12581299 32.30686035 -56.37662598 32.3012207 -55.60473633 32.29541016 C-44.35369154 32.05210526 -32.02571001 29.0987066 -23.3125 21.53515625 C-22.9 21.09042969 -22.4875 20.64570313 -22.0625 20.1875 C-19.68340215 17.6642144 -18.42368275 17.18019383 -15 17 C-13.515 17.495 -13.515 17.495 -12 18 C-11.01 17.505 -11.01 17.505 -10 17 C-10.495 19.475 -10.495 19.475 -11 22 C-10.34 22 -9.68 22 -9 22 C-8.67 20.35 -8.34 18.7 -8 17 C-7.34 17 -6.68 17 -6 17 C-5.34 13.37 -4.68 9.74 -4 6 C-3.34 6 -2.68 6 -2 6 C-1.855625 5.195625 -1.71125 4.39125 -1.5625 3.5625 C-1 1 -1 1 0 0 Z " fill="#EB1E51" transform="translate(337,226)"/>
<path d="M0 0 C2.05078125 0.03255208 4.1015625 0.06510417 6.15234375 0.09765625 C6.15234375 4.05765625 6.15234375 8.01765625 6.15234375 12.09765625 C6.91546875 11.45828125 7.67859375 10.81890625 8.46484375 10.16015625 C12.72149888 6.89342091 15.91951778 6.99892368 21.15234375 7.09765625 C21.83984375 8.91015625 21.83984375 8.91015625 22.15234375 11.09765625 C20.74284483 12.8595299 19.14273526 14.10554894 17.40234375 15.53515625 C16.98984375 16.05078125 16.57734375 16.56640625 16.15234375 17.09765625 C16.3568284 19.16560529 16.3568284 19.16560529 17.15234375 21.09765625 C17.48567708 22.43098958 17.81901042 23.76432292 18.15234375 25.09765625 C18.81234375 25.09765625 19.47234375 25.09765625 20.15234375 25.09765625 C21.47234375 27.73765625 22.79234375 30.37765625 24.15234375 33.09765625 C18.31669977 34.22994538 18.31669977 34.22994538 15.15234375 34.09765625 C12.08984375 31.84765625 12.08984375 31.84765625 10.15234375 29.09765625 C10.15234375 28.10765625 10.15234375 27.11765625 10.15234375 26.09765625 C9.16234375 25.76765625 8.17234375 25.43765625 7.15234375 25.09765625 C6.82234375 27.73765625 6.49234375 30.37765625 6.15234375 33.09765625 C-0.59765625 34.22265625 -0.59765625 34.22265625 -2.84765625 33.09765625 C-2.87231017 28.5586792 -2.89049414 24.01974082 -2.90258789 19.48071289 C-2.90762765 17.93545859 -2.91445945 16.39020909 -2.9230957 14.8449707 C-2.93517701 12.62840596 -2.94088798 10.41190407 -2.9453125 8.1953125 C-2.95047379 7.50051285 -2.95563507 6.8057132 -2.96095276 6.08985901 C-2.96114902 4.42536295 -2.90954754 2.76100126 -2.84765625 1.09765625 C-1.84765625 0.09765625 -1.84765625 0.09765625 0 0 Z " fill="#E7E4E5" transform="translate(270.84765625,270.90234375)"/>
<path d="M0 0 C3.5 0.125 3.5 0.125 4.5 1.125 C4.73363881 2.97391946 4.91303635 4.82988031 5.0625 6.6875 C5.14628906 7.69941406 5.23007812 8.71132813 5.31640625 9.75390625 C5.37699219 10.53636719 5.43757813 11.31882812 5.5 12.125 C6.7684375 10.8875 6.7684375 10.8875 8.0625 9.625 C10.82453135 7.28485411 11.50048191 7.12496114 15.375 6.8125 C16.40625 6.915625 17.4375 7.01875 18.5 7.125 C19.125 8.9375 19.125 8.9375 19.5 11.125 C18.51 12.61 18.51 12.61 17.5 14.125 C16.84 14.125 16.18 14.125 15.5 14.125 C14.497994 17.82639921 14.215506 19.54515937 15.93359375 23.046875 C16.92552734 24.44679688 16.92552734 24.44679688 17.9375 25.875 C21.5 30.97822896 21.5 30.97822896 21.5 33.125 C18.22195 34.764025 16.12178526 34.66826779 12.5 34.125 C10.61509429 32.21017515 9.21471576 30.22977763 7.76171875 27.97265625 C6.62336026 25.98399752 6.62336026 25.98399752 4.5 25.125 C4.5 27.765 4.5 30.405 4.5 33.125 C-2.25 34.25 -2.25 34.25 -4.5 33.125 C-4.52465392 28.58602295 -4.54283789 24.04708457 -4.55493164 19.50805664 C-4.5599714 17.96280234 -4.5668032 16.41755284 -4.57543945 14.87231445 C-4.58752076 12.65574971 -4.59323173 10.43924782 -4.59765625 8.22265625 C-4.60281754 7.5278566 -4.60797882 6.83305695 -4.61329651 6.11720276 C-4.61349277 4.4527067 -4.56189129 2.78834501 -4.5 1.125 C-3.5 0.125 -3.5 0.125 0 0 Z " fill="#DDDBDB" transform="translate(353.5,270.875)"/>
<path d="M0 0 C0.66644531 0.2990625 1.33289063 0.598125 2.01953125 0.90625 C6.16034511 2.42581472 10.4070875 3.10435169 14.73632812 3.85546875 C19.79095124 4.79095124 19.79095124 4.79095124 22 7 C22.125 9.625 22.125 9.625 22 12 C23.98 12 25.96 12 28 12 C29.35048039 14.70096077 29.12963577 16.82726517 29.1328125 19.84765625 C29.13474609 21.59079102 29.13474609 21.59079102 29.13671875 23.36914062 C29.13285156 24.58794922 29.12898438 25.80675781 29.125 27.0625 C29.13080078 28.89651367 29.13080078 28.89651367 29.13671875 30.76757812 C29.13542969 31.92837891 29.13414062 33.08917969 29.1328125 34.28515625 C29.13168457 35.35644775 29.13055664 36.42773926 29.12939453 37.53149414 C29 40 29 40 28 41 C24.31212973 40.91299036 20.66033243 40.43980739 17 40 C15.78183594 39.86658203 15.78183594 39.86658203 14.5390625 39.73046875 C6.07119249 38.45044189 1.37080653 35.18540326 -7 31 C-7.33 49.81 -7.66 68.62 -8 88 C-8.33 88 -8.66 88 -9 88 C-9.33 68.2 -9.66 48.4 -10 28 C-6.06931316 26.68977105 -3.75834714 27.97996481 -0.0625 29.375 C6.68803045 31.79655608 12.78671457 32.73284128 20 33 C20 26.07 20 19.14 20 12 C17.03 11.34 14.06 10.68 11 10 C8.2027729 8.58551888 6.4205776 7.06006605 4 5 C4 4.34 4 3.68 4 3 C2.68 3 1.36 3 0 3 C0 2.01 0 1.02 0 0 Z " fill="#E62152" transform="translate(347,136)"/>
<path d="M0 0 C0.33 1.32 0.66 2.64 1 4 C0.01 4.66 -0.98 5.32 -2 6 C-2.72965366 8.56282742 -2.72965366 8.56282742 -3 11 C-3.66 11 -4.32 11 -5 11 C-4.67 11.99 -4.34 12.98 -4 14 C-3.401875 13.67 -2.80375 13.34 -2.1875 13 C0 12 0 12 3 12 C2.55841444 16.06258714 1.83205291 19.53340142 0.4375 23.375 C-2.78403138 33.76959634 -2.3284396 47.01743634 2 57 C4.2765137 61.03701762 6.71813417 64.71813417 10 68 C9.625 70.125 9.625 70.125 9 72 C7.8274869 71.04882866 6.66212985 70.08882991 5.5 69.125 C4.8503125 68.59132813 4.200625 68.05765625 3.53125 67.5078125 C3.0259375 67.01023437 2.520625 66.51265625 2 66 C2 65.34 2 64.68 2 64 C1.34 64 0.68 64 0 64 C-7.8873775 55.18012466 -10.70899468 43.17631079 -11.12109375 31.59765625 C-10.93963628 28.6595896 -10.55929478 25.88901907 -10 23 C-9.81050781 21.97132813 -9.62101563 20.94265625 -9.42578125 19.8828125 C-8.02424533 13.38551882 -5.91021076 8.35556919 -2 3 C-1.34 2.01 -0.68 1.02 0 0 Z " fill="#80C7CA" transform="translate(243,179)"/>
<path d="M0 0 C8.91 0 17.82 0 27 0 C27.33 1.98 27.66 3.96 28 6 C30.31 6.33 32.62 6.66 35 7 C35.10957031 7.71285156 35.21914063 8.42570312 35.33203125 9.16015625 C36.60233848 16.83363815 38.15748563 22.7739101 43 29 C43 29.66 43 30.32 43 31 C39.46600105 29.52157091 37.44254483 27.55937221 34.9375 24.6875 C34.26589844 23.92824219 33.59429687 23.16898438 32.90234375 22.38671875 C28.58439979 16.96933937 28 15.46079228 28 8 C21.4 8 14.8 8 8 8 C8.00444122 9.36920593 8.00888245 10.73841187 8.01345825 12.14910889 C8.05396427 25.03919664 8.08396515 37.92927151 8.10362434 50.81940842 C8.114071 57.44668984 8.12824638 64.07391997 8.15087891 70.70117188 C8.1725757 77.09427649 8.18456198 83.48733169 8.18975449 89.88047028 C8.19345592 92.32216418 8.20068369 94.76385533 8.21146011 97.20552826 C8.22593283 100.61982614 8.22797969 104.03391867 8.22705078 107.44824219 C8.23424133 108.46244232 8.24143188 109.47664246 8.24884033 110.52157593 C8.246091 111.45263153 8.24334167 112.38368713 8.24050903 113.34295654 C8.24235262 114.1504472 8.24419621 114.95793785 8.24609566 115.78989792 C7.97294381 118.24298249 7.22498706 119.87462882 6 122 C5.4375 120.0625 5.4375 120.0625 5 118 C5.495 117.505 5.495 117.505 6 117 C6.10763675 115.5709839 6.1468064 114.13673874 6.15821838 112.70372009 C6.17290161 111.31332268 6.17290161 111.31332268 6.18788147 109.89483643 C6.19363693 108.86985046 6.1993924 107.8448645 6.20532227 106.78881836 C6.21522186 105.71577957 6.22512146 104.64274078 6.23532104 103.53718567 C6.26704374 99.97142788 6.29173588 96.40565675 6.31640625 92.83984375 C6.33696649 90.37504215 6.3579627 87.91024414 6.37937927 85.44544983 C6.43469605 78.94350085 6.48406282 72.44151954 6.53222656 65.93951416 C6.5818404 59.31055451 6.63809412 52.6816489 6.69335938 46.05273438 C6.80105837 33.03519653 6.90247709 20.01761778 7 7 C12.94 7 18.88 7 25 7 C25 5.35 25 3.7 25 2 C17.08 2 9.16 2 1 2 C1 38.63 1 75.26 1 113 C0.01 113.495 0.01 113.495 -1 114 C-0.67 76.38 -0.34 38.76 0 0 Z " fill="#81C7C9" transform="translate(304,105)"/>
<path d="M0 0 C7.92 0 15.84 0 24 0 C23 8 23 8 22 9 C20.02 9 18.04 9 16 9 C16 17.25 16 25.5 16 34 C13.03 33.67 10.06 33.34 7 33 C7 25.08 7 17.16 7 9 C4.36 9 1.72 9 -1 9 C-2.16552619 4.80410573 -2.08954032 4.17908064 0 0 Z " fill="#E2E0E1" transform="translate(296,271)"/>
<path d="M0 0 C4.35990873 -0.07418046 8.71948279 -0.12861544 13.07983398 -0.16479492 C14.56297199 -0.17987768 16.04606544 -0.20034689 17.52905273 -0.22631836 C19.66140745 -0.26272616 21.79317235 -0.27973073 23.92578125 -0.29296875 C25.85031128 -0.31653442 25.85031128 -0.31653442 27.8137207 -0.34057617 C31 0 31 0 32.96557617 1.29174805 C34.68961687 4.13883627 33.58202071 6.85708819 33 10 C33.495 10.495 33.495 10.495 34 11 C34.08700342 12.63472882 34.10701063 14.27314055 34.09765625 15.91015625 C34.09443359 16.89951172 34.09121094 17.88886719 34.08789062 18.90820312 C34.07532227 20.46958008 34.07532227 20.46958008 34.0625 22.0625 C34.05798828 23.10728516 34.05347656 24.15207031 34.04882812 25.22851562 C34.03699913 27.8190666 34.02051689 30.40950559 34 33 C30.34811918 34.07174763 27.73567172 33.76411467 24 33 C24 24.66666667 24 16.33333333 24 8 C23.67 8 23.34 8 23 8 C23 5.69 23 3.38 23 1 C15.74 1 8.48 1 1 1 C1 3.31 1 5.62 1 8 C2.98 8 4.96 8 7 8 C6.67 9.32 6.34 10.64 6 12 C6 11.01 6 10.02 6 9 C4.02 9 2.04 9 0 9 C-1.125 2.25 -1.125 2.25 0 0 Z " fill="#E2DEE0" transform="translate(233,271)"/>
<path d="M0 0 C1 1 1 1 1.0625 4.5625 C1.041875 5.696875 1.02125 6.83125 1 8 C0.18917969 7.95359375 -0.62164062 7.9071875 -1.45703125 7.859375 C-8.67865166 7.62397876 -14.12858484 8.3014684 -20.7578125 11.22265625 C-23 12 -23 12 -26 11 C-27.67540664 11.64438717 -29.34183216 12.31246699 -31 13 C-32.32 13 -33.64 13 -35 13 C-35 13.66 -35 14.32 -35 15 C-35.7425 15.12375 -36.485 15.2475 -37.25 15.375 C-39.80141485 15.95486701 -41.7267573 16.73708739 -44 18 C-37.31893301 8.41412127 -26.85699851 2.57462913 -15.546875 0.30859375 C-10.39494137 -0.31564361 -5.17589662 -0.33119577 0 0 Z " fill="#6ABBC2" transform="translate(288,161)"/>
<path d="M0 0 C1.04449911 3.13349732 0.93423645 3.98968256 0 7 C-1.32 7.33 -2.64 7.66 -4 8 C-5.60614551 16.08808989 -6.26305952 23.7574683 -6 32 C-6.99 32 -7.98 32 -9 32 C-10.3515625 30.390625 -10.3515625 30.390625 -11.625 28.25 C-12.05039062 27.55390625 -12.47578125 26.8578125 -12.9140625 26.140625 C-15.11659478 21.79894266 -15.32845186 17.84466495 -15 13 C-14.17494714 10.53443507 -13.14825059 8.34434495 -12 6 C-11.01 6 -10.02 6 -9 6 C-8.773125 5.38125 -8.54625 4.7625 -8.3125 4.125 C-6.36599536 0.97351629 -3.66041994 0 0 0 Z " fill="#EA1E52" transform="translate(274,194)"/>
<path d="M0 0 C0.33 0.66 0.66 1.32 1 2 C1.66 2 2.32 2 3 2 C3.33 1.34 3.66 0.68 4 0 C5.99996498 1.65168612 6.91796488 2.52102077 7.36328125 5.12109375 C7.34652344 5.88550781 7.32976562 6.64992188 7.3125 7.4375 C7.30863281 8.19933594 7.30476563 8.96117187 7.30078125 9.74609375 C6.84892233 13.13210153 5.37263075 15.44105388 3.5 18.25 C-1.10162544 21.47113781 -6.78795204 20.35392767 -12.125 19.5 C-12.74375 19.335 -13.3625 19.17 -14 19 C-14.66 16.69 -15.32 14.38 -16 12 C-15.071875 12.2784375 -15.071875 12.2784375 -14.125 12.5625 C-11.95839822 13.23686176 -11.95839822 13.23686176 -10 12 C-7.375 12.9375 -7.375 12.9375 -5 14 C-2.81264648 12.56990998 -2.81264648 12.56990998 -1 10 C-0.75202559 7.5959091 -0.81103662 5.33666557 -0.95703125 2.92578125 C-0.97121094 2.29027344 -0.98539062 1.65476562 -1 1 C-0.67 0.67 -0.34 0.34 0 0 Z " fill="#F8F1F2" transform="translate(338,284)"/>
<path d="M0 0 C1.92121607 4.95913898 -0.52589469 9.02437899 -2.421875 13.67578125 C-6.46524669 22.19288351 -12.42675851 27.5965412 -20 33 C-20.69609375 33.53496094 -21.3921875 34.06992187 -22.109375 34.62109375 C-25.29816172 36.94679977 -28.05685178 38 -32 38 C-32 37.01 -32 36.02 -32 35 C-29.36 34.67 -26.72 34.34 -24 34 C-24 33.34 -24 32.68 -24 32 C-23.34 32 -22.68 32 -22 32 C-22.3403125 30.3603125 -22.3403125 30.3603125 -22.6875 28.6875 C-23 25 -23 25 -21.625 23.3125 C-20.820625 22.6628125 -20.820625 22.6628125 -20 22 C-19.28552357 19.89667109 -19.28552357 19.89667109 -19 18 C-15.98968256 17.06576355 -15.13349732 16.95550089 -12 18 C-11.34 17.67 -10.68 17.34 -10 17 C-10.33 18.65 -10.66 20.3 -11 22 C-10.34 22 -9.68 22 -9 22 C-8.67 20.35 -8.34 18.7 -8 17 C-7.34 17 -6.68 17 -6 17 C-5.34 13.37 -4.68 9.74 -4 6 C-3.34 6 -2.68 6 -2 6 C-1.855625 5.195625 -1.71125 4.39125 -1.5625 3.5625 C-1 1 -1 1 0 0 Z " fill="#DD1D4C" transform="translate(337,226)"/>
<path d="M0 0 C0.33 1.32 0.66 2.64 1 4 C1.969375 4.144375 2.93875 4.28875 3.9375 4.4375 C7 5 7 5 8 6 C8.08758003 7.99964982 8.10696576 10.0023611 8.09765625 12.00390625 C8.09443359 13.21884766 8.09121094 14.43378906 8.08789062 15.68554688 C8.07951172 16.96494141 8.07113281 18.24433594 8.0625 19.5625 C8.05798828 20.84576172 8.05347656 22.12902344 8.04882812 23.45117188 C8.03699545 26.63416022 8.02051068 29.81705762 8 33 C4.65055614 33.6925673 1.4106984 34.1763684 -2 34.4375 C-7.94846286 35.05346509 -11.25034201 35.80751194 -15.1875 40.5 C-18.95232331 45.88943698 -20.43405608 51.30547615 -19.6640625 57.859375 C-19.19380577 60.27199646 -18.6550969 62.63157276 -18 65 C-19.32 64.34 -20.64 63.68 -22 63 C-22.26305952 54.7574683 -21.60614551 47.08808989 -20 39 C-17.525 38.505 -17.525 38.505 -15 38 C-15 36.68 -15 35.36 -15 34 C-13.00133314 33.65876419 -11.00097458 33.3274322 -9 33 C-7.88625 32.814375 -6.7725 32.62875 -5.625 32.4375 C-2 32 -2 32 6 32 C6 23.75 6 15.5 6 7 C4.68 7.33 3.36 7.66 2 8 C1.67 13.61 1.34 19.22 1 25 C0.67 25 0.34 25 0 25 C0 16.75 0 8.5 0 0 Z " fill="#B51B41" transform="translate(289,163)"/>
<path d="M0 0 C0.33 1.32 0.66 2.64 1 4 C0.01 4.66 -0.98 5.32 -2 6 C-2.72965366 8.56282742 -2.72965366 8.56282742 -3 11 C-3.66 11 -4.32 11 -5 11 C-4.67 11.99 -4.34 12.98 -4 14 C-3.401875 13.67 -2.80375 13.34 -2.1875 13 C0 12 0 12 3 12 C3 13.32 3 14.64 3 16 C2.34 16 1.68 16 1 16 C0.82984375 16.6290625 0.6596875 17.258125 0.484375 17.90625 C-1.14458878 23.65961144 -3.05997123 28.78381992 -6 34 C-6.99 34.495 -6.99 34.495 -8 35 C-8.65772428 38.02934491 -8.65772428 38.02934491 -9 41 C-9.33 41 -9.66 41 -10 41 C-12.23346627 28.2988424 -9.95345839 14.93897722 -3 4 C-2.01640638 2.65451816 -1.02076738 1.31750208 0 0 Z " fill="#66BCC1" transform="translate(243,179)"/>
<path d="M0 0 C3.34430737 0.72366315 5.34262343 1.81715496 8 4 C7.01 4.66 6.02 5.32 5 6 C4.34 5.67 3.68 5.34 3 5 C3.00444122 5.68460297 3.00888245 6.36920593 3.01345825 7.07455444 C3.05759497 14.17923909 3.0878261 21.283885 3.10986328 28.38867188 C3.11994089 31.04265931 3.13360313 33.6966356 3.15087891 36.35058594 C3.17504992 40.15823107 3.18646535 43.96572984 3.1953125 47.7734375 C3.20563507 48.96617279 3.21595764 50.15890808 3.22659302 51.38778687 C3.22674408 52.48877716 3.22689514 53.58976746 3.22705078 54.72412109 C3.231492 55.69674896 3.23593323 56.66937683 3.24050903 57.67147827 C3 60 3 60 1 62 C0.814375 63.7325 0.814375 63.7325 0.625 65.5 C0.41875 66.655 0.2125 67.81 0 69 C-2.0390625 70.21875 -2.0390625 70.21875 -4 71 C-3.78937424 70.14989349 -3.57874847 69.29978699 -3.36174011 68.42391968 C-1.36867215 59.87482767 -0.53608953 51.95182045 -0.48828125 43.1640625 C-0.46135445 41.29601456 -0.46135445 41.29601456 -0.43388367 39.39022827 C-0.38032272 35.46851852 -0.34605995 31.54692656 -0.3125 27.625 C-0.28086013 24.94266911 -0.24497522 22.26040058 -0.20898438 19.578125 C-0.12462812 13.05218921 -0.05605245 6.52623708 0 0 Z " fill="#D3305B" transform="translate(331,159)"/>
<path d="M0 0 C4.35990873 -0.07418046 8.71948279 -0.12861544 13.07983398 -0.16479492 C14.56297199 -0.17987768 16.04606544 -0.20034689 17.52905273 -0.22631836 C19.66140745 -0.26272616 21.79317235 -0.27973073 23.92578125 -0.29296875 C25.85031128 -0.31653442 25.85031128 -0.31653442 27.8137207 -0.34057617 C31 0 31 0 32.9375 1.390625 C34.95124546 4.4408571 33.61950827 7.56454507 33 11 C30.36 11 27.72 11 25 11 C24.67 10.01 24.34 9.02 24 8 C23.67 8 23.34 8 23 8 C23 5.69 23 3.38 23 1 C15.74 1 8.48 1 1 1 C1 3.31 1 5.62 1 8 C2.98 8 4.96 8 7 8 C6.67 9.32 6.34 10.64 6 12 C6 11.01 6 10.02 6 9 C4.02 9 2.04 9 0 9 C-1.125 2.25 -1.125 2.25 0 0 Z " fill="#7F7B7D" transform="translate(233,271)"/>
<path d="M0 0 C0.33 1.32 0.66 2.64 1 4 C3.31 4.33 5.62 4.66 8 5 C8.10957031 5.71285156 8.21914063 6.42570312 8.33203125 7.16015625 C9.60233848 14.83363815 11.15748563 20.7739101 16 27 C16 27.66 16 28.32 16 29 C12.46600105 27.52157091 10.44254483 25.55937221 7.9375 22.6875 C7.26589844 21.92824219 6.59429687 21.16898438 5.90234375 20.38671875 C2.08470474 15.59703203 0.6249136 12.37328922 0.3125 6.1875 C0.24675781 5.02605469 0.18101562 3.86460938 0.11328125 2.66796875 C0.07589844 1.78753906 0.03851563 0.90710938 0 0 Z " fill="#C33257" transform="translate(331,107)"/>
<path d="M0 0 C0.53367187 0.18175781 1.06734375 0.36351562 1.6171875 0.55078125 C7.37591783 2.4936055 13.16993922 4.28384432 19 6 C18.67 6.99 18.34 7.98 18 9 C21.3 9.33 24.6 9.66 28 10 C28 10.66 28 11.32 28 12 C33.61 12 39.22 12 45 12 C45 12.33 45 12.66 45 13 C28.66095874 14.68845418 15.39516739 13.40727291 2 3 C1.34 2.01 0.68 1.02 0 0 Z " fill="#B52446" transform="translate(256,253)"/>
<path d="M0 0 C0.33 0 0.66 0 1 0 C1.33 1.98 1.66 3.96 2 6 C2.99 5.01 3.98 4.02 5 3 C5.06058594 3.98742187 5.12117187 4.97484375 5.18359375 5.9921875 C5.26738281 7.27351562 5.35117188 8.55484375 5.4375 9.875 C5.51871094 11.15117187 5.59992188 12.42734375 5.68359375 13.7421875 C5.79206027 16.88300152 5.79206027 16.88300152 7 19 C7.04022391 21.3329866 7.04320247 23.66706666 7 26 C6.34 26 5.68 26 5 26 C4.67 26.66 4.34 27.32 4 28 C1.41070612 23.04656824 -0.13755738 19.25803362 -0.09765625 13.671875 C-0.09282227 12.47304687 -0.09282227 12.47304687 -0.08789062 11.25 C-0.07951172 10.425 -0.07113281 9.6 -0.0625 8.75 C-0.05798828 7.90953125 -0.05347656 7.0690625 -0.04882812 6.203125 C-0.03707961 4.13538599 -0.01914522 2.06768376 0 0 Z " fill="#71C8CE" transform="translate(234,207)"/>
<path d="M0 0 C0.66515625 0.29777344 1.3303125 0.59554687 2.015625 0.90234375 C5.53413595 2.19645576 9.07500979 2.89335438 12.75 3.5625 C19.86980969 4.86980969 19.86980969 4.86980969 21 6 C21.04080783 7.99958364 21.04254356 10.00045254 21 12 C14.04242456 11.74699726 9.2808951 9.60855892 4 5 C4 4.34 4 3.68 4 3 C2.68 3 1.36 3 0 3 C0 2.01 0 1.02 0 0 Z " fill="#72A8A9" transform="translate(347,136)"/>
<path d="M0 0 C3.3 0.99 6.6 1.98 10 3 C10 3.99 10 4.98 10 6 C11.32 6.66 12.64 7.32 14 8 C13.01 8.495 13.01 8.495 12 9 C8.7 7.35 5.4 5.7 2 4 C1.67 22.81 1.34 41.62 1 61 C0.67 61 0.34 61 0 61 C-0.1536073 53.19434745 -0.30178897 45.38861271 -0.4429636 37.58272648 C-0.5086825 33.95849515 -0.57629966 30.3343196 -0.64819336 26.71020508 C-0.71745158 23.21547391 -0.78180408 19.72068427 -0.84269524 16.22579765 C-0.87863704 14.23754858 -0.91971453 12.24939453 -0.96083069 10.26124573 C-0.98092697 9.06007614 -1.00102325 7.85890656 -1.02172852 6.62133789 C-1.04171402 5.55766495 -1.06169952 4.493992 -1.08229065 3.39808655 C-1 1 -1 1 0 0 Z " fill="#7E1D33" transform="translate(338,163)"/>
<path d="M0 0 C2.31 0.33 4.62 0.66 7 1 C7 1.33 7 1.66 7 2 C5.35 2 3.7 2 2 2 C2.00785522 2.90093384 2.00785522 2.90093384 2.01586914 3.82006836 C2.03658014 6.52586838 2.04964125 9.23165177 2.0625 11.9375 C2.07087891 12.88302734 2.07925781 13.82855469 2.08789062 14.80273438 C2.09272461 16.15141602 2.09272461 16.15141602 2.09765625 17.52734375 C2.10551147 18.77632446 2.10551147 18.77632446 2.11352539 20.05053711 C2 22 2 22 1 23 C-0.56179116 23.04705962 -2.12544667 23.03735852 -3.6875 23 C-6.78028343 22.95153758 -9.26357759 23.05470478 -12.3125 23.6875 C-15 24 -15 24 -17.875 22.6875 C-18.57625 22.130625 -19.2775 21.57375 -20 21 C-20 20.34 -20 19.68 -20 19 C-18.9275 19.144375 -17.855 19.28875 -16.75 19.4375 C-11.18172462 20.13854186 -5.59377222 20.55504085 0 21 C0 14.07 0 7.14 0 0 Z " fill="#D0456A" transform="translate(367,148)"/>
<path d="M0 0 C0.495 1.98 0.495 1.98 1 4 C0.01 4.33 -0.98 4.66 -2 5 C-3.21869929 7.50447516 -3.21869929 7.50447516 -4 10 C-5.5778125 10.12375 -5.5778125 10.12375 -7.1875 10.25 C-11.00676241 10.65837485 -11.00676241 10.65837485 -13.1875 13 C-20.58381229 18.25959985 -33.29093074 16.11594915 -42 16 C-42 15.67 -42 15.34 -42 15 C-40.16888672 14.87044922 -40.16888672 14.87044922 -38.30078125 14.73828125 C-23.49739888 13.53821074 -10.89032617 10.89032617 0 0 Z " fill="#DB4C73" transform="translate(317,244)"/>
<path d="M0 0 C-0.99 0.66 -1.98 1.32 -3 2 C-3 2.66 -3 3.32 -3 4 C-2.29488281 3.83628906 -1.58976562 3.67257812 -0.86328125 3.50390625 C2.09658688 2.98300176 4.81061273 2.90133268 7.8125 2.9375 C9.27623047 2.95103516 9.27623047 2.95103516 10.76953125 2.96484375 C11.87361328 2.98224609 11.87361328 2.98224609 13 3 C13 3.66 13 4.32 13 5 C6.07 5 -0.86 5 -8 5 C-8 4.34 -8 3.68 -8 3 C-11.3 3 -14.6 3 -18 3 C-18.33 2.34 -18.66 1.68 -19 1 C-16.08554771 -0.45722614 -13.30191237 -0.39098672 -10.0625 -0.625 C-8.81597656 -0.72039062 -7.56945312 -0.81578125 -6.28515625 -0.9140625 C-3 -1 -3 -1 0 0 Z " fill="#DC2251" transform="translate(292,260)"/>
<path d="M0 0 C4.38600259 0.59500035 7.21000452 1.97343965 10.0234375 5.41015625 C12.01073477 10.07598463 12.49017592 14.36938131 12.0234375 19.41015625 C10.5082243 22.58488867 8.74591381 25.16115408 6.0234375 27.41015625 C5.3634375 27.41015625 4.7034375 27.41015625 4.0234375 27.41015625 C5.7734375 23.53515625 5.7734375 23.53515625 8.0234375 22.41015625 C9.51199499 17.94448377 10.17110866 12.92981612 8.1640625 8.5234375 C6.93178407 6.67948464 5.59430086 4.98101961 4.0234375 3.41015625 C1.32688896 3.33696004 -1.34347708 3.31773088 -4.0390625 3.34765625 C-5.17698242 3.35442383 -5.17698242 3.35442383 -6.33789062 3.36132812 C-8.21748121 3.37314945 -10.09703149 3.39108547 -11.9765625 3.41015625 C-8.72369284 -0.77847043 -4.94711729 -0.13775266 0 0 Z " fill="#8C737A" transform="translate(334.9765625,276.58984375)"/>
<path d="M0 0 C8.91 0 17.82 0 27 0 C27 2.64 27 5.28 27 8 C20.73 8 14.46 8 8 8 C8 7.67 8 7.34 8 7 C13.61 7 19.22 7 25 7 C25 5.35 25 3.7 25 2 C16.75 2 8.5 2 0 2 C0 1.34 0 0.68 0 0 Z " fill="#7BB0B3" transform="translate(304,105)"/>
<path d="M0 0 C0.92930784 2.78792353 1.01669507 5.22118075 0.9375 8.125 C0.55086978 12.01461069 0.55086978 12.01461069 3 14 C3.99 13.67 4.98 13.34 6 13 C6.33 16.96 6.66 20.92 7 25 C6.01 25 5.02 25 4 25 C2.6484375 23.390625 2.6484375 23.390625 1.375 21.25 C0.94960938 20.55390625 0.52421875 19.8578125 0.0859375 19.140625 C-2.63723277 13.77264908 -2.67254312 8.31186698 -1 2.5625 C-0.67 1.716875 -0.34 0.87125 0 0 Z " fill="#DB3965" transform="translate(261,201)"/>
<path d="M0 0 C0.33 0.99 0.66 1.98 1 3 C-2.3 3.33 -5.6 3.66 -9 4 C-9.33 5.65 -9.66 7.3 -10 9 C-11.65 8.67 -13.3 8.34 -15 8 C-15 7.34 -15 6.68 -15 6 C-20.31411494 7.92391649 -20.31411494 7.92391649 -24 12 C-24.66 12 -25.32 12 -26 12 C-24.10054187 7.16501567 -20.54213592 5.00418153 -16.3125 2.25 C-10.97621424 0.23630726 -5.41447355 0.19517548 0 2 C0 1.34 0 0.68 0 0 Z " fill="#D8305C" transform="translate(289,188)"/>
<path d="M0 0 C0.33 0 0.66 0 1 0 C1 1.65 1 3.3 1 5 C2.98 5 4.96 5 7 5 C8.35048039 7.70096077 8.12963577 9.82726517 8.1328125 12.84765625 C8.13474609 14.59079102 8.13474609 14.59079102 8.13671875 16.36914062 C8.13285156 17.58794922 8.12898438 18.80675781 8.125 20.0625 C8.12886719 21.28517578 8.13273437 22.50785156 8.13671875 23.76757812 C8.13542969 24.92837891 8.13414062 26.08917969 8.1328125 27.28515625 C8.13168457 28.35644775 8.13055664 29.42773926 8.12939453 30.53149414 C8 33 8 33 7 34 C5.14227838 33.91015699 3.28752015 33.75388139 1.4375 33.5625 C0.42558594 33.46066406 -0.58632813 33.35882813 -1.62890625 33.25390625 C-2.41136719 33.17011719 -3.19382812 33.08632812 -4 33 C-4 32.67 -4 32.34 -4 32 C-0.7 32 2.6 32 6 32 C6 23.42 6 14.84 6 6 C4.02 6 2.04 6 0 6 C0 4.02 0 2.04 0 0 Z " fill="#72162D" transform="translate(368,143)"/>
<path d="M0 0 C0.68359375 1.8125 0.68359375 1.8125 1 4 C-0.21484375 5.5625 -0.21484375 5.5625 -1.9375 7 C-3.67231446 8.37601518 -3.67231446 8.37601518 -5 10 C-5 11.32 -5 12.64 -5 14 C-5.66 14 -6.32 14 -7 14 C-7.12375 13.030625 -7.2475 12.06125 -7.375 11.0625 C-7.58125 10.051875 -7.7875 9.04125 -8 8 C-8.66 7.67 -9.32 7.34 -10 7 C-10 6.34 -10 5.68 -10 5 C-9.34 5 -8.68 5 -8 5 C-8.83333333 2.83333333 -8.83333333 2.83333333 -11 2 C-7.36576791 -0.32590854 -4.22911669 -0.16265833 0 0 Z " fill="#BFBCBD" transform="translate(292,278)"/>
<path d="M0 0 C1.91832196 4.95166857 -0.52236085 9.00604161 -2.40234375 13.65625 C-5.27415994 19.66670149 -8.7000833 25.31185173 -15 28 C-15.33 27.01 -15.66 26.02 -16 25 C-14.68 25 -13.36 25 -12 25 C-12.33 23.68 -12.66 22.36 -13 21 C-12.34 20.67 -11.68 20.34 -11 20 C-11 20.66 -11 21.32 -11 22 C-10.34 22 -9.68 22 -9 22 C-8.67 20.35 -8.34 18.7 -8 17 C-7.34 17 -6.68 17 -6 17 C-5.34 13.37 -4.68 9.74 -4 6 C-3.34 6 -2.68 6 -2 6 C-1.855625 5.195625 -1.71125 4.39125 -1.5625 3.5625 C-1 1 -1 1 0 0 Z " fill="#A11D3E" transform="translate(337,226)"/>
<path d="M0 0 C5.59609915 1.780577 5.59609915 1.780577 7.94140625 3.0546875 C14.0990304 5.8822872 21.75696178 3.65300303 28 2 C28 2.66 28 3.32 28 4 C27.34 4 26.68 4 26 4 C26 4.66 26 5.32 26 6 C21.31506124 8.48887372 18.0555786 7.85687773 13 7 C13 7.99 13 8.98 13 10 C9.59804024 8.54201725 7.59645461 6.59645461 5 4 C3.34338239 2.98343919 1.67888441 1.97934924 0 1 C0 0.67 0 0.34 0 0 Z " fill="#769CA2" transform="translate(267,227)"/>
<path d="M0 0 C0.66 0.33 1.32 0.66 2 1 C-2.8026849 6.23929262 -8.4371931 10.78719419 -15.84765625 11.1328125 C-16.90855469 11.13023437 -17.96945312 11.12765625 -19.0625 11.125 C-20.12597656 11.12757813 -21.18945312 11.13015625 -22.28515625 11.1328125 C-25 11 -25 11 -27 10 C-27 9.34 -27 8.68 -27 8 C-21.06 8 -15.12 8 -9 8 C-8.34 6.35 -7.68 4.7 -7 3 C-4.525 3.495 -4.525 3.495 -2 4 C-1.34 2.68 -0.68 1.36 0 0 Z " fill="#7FC6C8" transform="translate(307,228)"/>
<path d="M0 0 C0.33 0.66 0.66 1.32 1 2 C-2.64341801 7.65357968 -2.64341801 7.65357968 -4.5078125 9.46484375 C-6.12874094 11.13244814 -7.03475132 12.66953709 -8.0625 14.75 C-8.54396484 15.70132813 -8.54396484 15.70132813 -9.03515625 16.671875 C-11.47960077 22.57021077 -12.34823075 28.13523359 -12.625 34.4375 C-12.66367188 35.16904297 -12.70234375 35.90058594 -12.7421875 36.65429688 C-12.83533984 38.43583532 -12.91870286 40.21788122 -13 42 C-13.33 42 -13.66 42 -14 42 C-14.47217833 26.92526953 -13.2922035 16.50950407 -4 4 C-2.6956295 2.63831973 -1.37045143 1.2951519 0 0 Z " fill="#D4F5F6" transform="translate(255,183)"/>
<path d="M0 0 C-3 2 -3 2 -5 2 C-5 2.66 -5 3.32 -5 4 C-7.97 4.99 -10.94 5.98 -14 7 C-13.01 8.485 -13.01 8.485 -12 10 C-13.98 10.33 -15.96 10.66 -18 11 C-18 11.66 -18 12.32 -18 13 C-18.7425 13.12375 -19.485 13.2475 -20.25 13.375 C-22.80141485 13.95486701 -24.7267573 14.73708739 -27 16 C-21.47520731 8.07312353 -10.37205036 -1.33832908 0 0 Z " fill="#64A0A5" transform="translate(271,163)"/>
<path d="M0 0 C1.63001953 0.01353516 1.63001953 0.01353516 3.29296875 0.02734375 C4.12441406 0.03894531 4.95585937 0.05054688 5.8125 0.0625 C2.68210215 1.80160992 -0.25908273 2.61731756 -3.75 3.375 C-9.96976256 4.86713398 -15.47843813 7.21735897 -21.1875 10.0625 C-21.950625 10.44277344 -22.71375 10.82304687 -23.5 11.21484375 C-24.056875 11.49457031 -24.61375 11.77429688 -25.1875 12.0625 C-23.67143921 8.20343616 -21.63197307 6.33438649 -18.1875 4.0625 C-15.23399555 2.88940333 -12.23472451 1.95840683 -9.1875 1.0625 C-5.90230525 -0.03256492 -3.45086585 -0.03710608 0 0 Z " fill="#7FC8CB" transform="translate(282.1875,167.9375)"/>
<path d="M0 0 C0.33 1.32 0.66 2.64 1 4 C3.97 4.495 3.97 4.495 7 5 C7 13.58 7 22.16 7 31 C6.67 31 6.34 31 6 31 C6 23.08 6 15.16 6 7 C4.68 7.33 3.36 7.66 2 8 C1.67 13.61 1.34 19.22 1 25 C0.67 25 0.34 25 0 25 C0 16.75 0 8.5 0 0 Z " fill="#A9284A" transform="translate(289,163)"/>
<path d="M0 0 C0 0.66 0 1.32 0 2 C-0.66 2 -1.32 2 -2 2 C-2.95595136 6.77975679 -3.23869279 11.14657994 -3 16 C-2.34 16.99 -1.68 17.98 -1 19 C-1.33 19.99 -1.66 20.98 -2 22 C-5.48118758 18.60584211 -7.36565808 16.46225474 -7.5 11.5 C-7.26683662 7.44021404 -6.23929045 4.44506223 -4 1 C-2 0 -2 0 0 0 Z " fill="#709092" transform="translate(323,280)"/>
<path d="M0 0 C2.6875 -0.5 2.6875 -0.5 6 0 C7.60725457 1.9077981 8.74180539 3.85975803 9.921875 6.0546875 C10.96640038 8.1502038 10.96640038 8.1502038 13 10 C12.625 12.125 12.625 12.125 12 14 C10.8274869 13.04882866 9.66212985 12.08882991 8.5 11.125 C7.8503125 10.59132812 7.200625 10.05765625 6.53125 9.5078125 C6.0259375 9.01023438 5.520625 8.51265625 5 8 C5 7.34 5 6.68 5 6 C4.34 6 3.68 6 3 6 C0 2.53846154 0 2.53846154 0 0 Z " fill="#88B3B5" transform="translate(240,237)"/>
<path d="M0 0 C0.33 0 0.66 0 1 0 C1 6.93 1 13.86 1 21 C-3.95 21 -8.9 21 -14 21 C-14 20.34 -14 19.68 -14 19 C-11 18 -11 18 -2 18 C-1.34 12.06 -0.68 6.12 0 0 Z " fill="#FDC5D5" transform="translate(288,169)"/>
<path d="M0 0 C0.33 0 0.66 0 1 0 C1 8.91 1 17.82 1 27 C-3.19465999 27.838932 -7.06055456 28.28433535 -11.3125 28.5625 C-12.56675781 28.64628906 -13.82101562 28.73007813 -15.11328125 28.81640625 C-16.06589844 28.87699219 -17.01851563 28.93757813 -18 29 C-17.67 28.34 -17.34 27.68 -17 27 C-14.28691681 26.52278016 -11.67026185 26.16013459 -8.9375 25.875 C-5.0084375 25.441875 -5.0084375 25.441875 -1 25 C-0.67 16.75 -0.34 8.5 0 0 Z " fill="#711226" transform="translate(296,169)"/>
<path d="M0 0 C0.33 0 0.66 0 1 0 C1 3.63 1 7.26 1 11 C0.01 10.67 -0.98 10.34 -2 10 C-2.33 11.32 -2.66 12.64 -3 14 C-4.65 14 -6.3 14 -8 14 C-7.043419 12.22821947 -6.08467012 10.45760924 -5.125 8.6875 C-4.59132813 7.70136719 -4.05765625 6.71523437 -3.5078125 5.69921875 C-2 3 -2 3 0 0 Z " fill="#DF3A66" transform="translate(326,230)"/>
<path d="M0 0 C0.33 0 0.66 0 1 0 C1 6.93 1 13.86 1 21 C-10.625 21.25 -10.625 21.25 -14 19 C-9.71 19 -5.42 19 -1 19 C-0.67 12.73 -0.34 6.46 0 0 Z " fill="#FCD1E1" transform="translate(366,148)"/>
<path d="M0 0 C5.75 -0.125 5.75 -0.125 8 1 C7.67 2.98 7.34 4.96 7 7 C5.02 7 3.04 7 1 7 C-0.0625 4.625 -0.0625 4.625 -1 2 C-0.67 1.34 -0.34 0.68 0 0 Z " fill="#EAE4E6" transform="translate(259,273)"/>
<path d="M0 0 C0.78375 0.825 1.5675 1.65 2.375 2.5 C4.63721264 5.22988506 4.63721264 5.22988506 7 5 C7 7.31 7 9.62 7 12 C6.34 12 5.68 12 5 12 C4.67 12.66 4.34 13.32 4 14 C1.24297811 9.20517932 0.46671627 5.41390868 0 0 Z " fill="#579FA1" transform="translate(234,221)"/>
<path d="M0 0 C1.0725 0.144375 2.145 0.28875 3.25 0.4375 C8.81717318 1.1384031 14.4070964 1.56188922 20 2 C20 2.33 20 2.66 20 3 C17.60618908 3.41854053 15.21284836 3.81014291 12.8125 4.1875 C12.13896484 4.30802734 11.46542969 4.42855469 10.77148438 4.55273438 C7.30030009 5.07764517 5.25013788 5.11084542 2.01171875 3.67578125 C1.34785156 3.12277344 0.68398438 2.56976563 0 2 C0 1.34 0 0.68 0 0 Z " fill="#D2325C" transform="translate(347,167)"/>
<path d="M0 0 C0.33 1.32 0.66 2.64 1 4 C0.01 4.66 -0.98 5.32 -2 6 C-2.72965366 8.56282742 -2.72965366 8.56282742 -3 11 C-3.66 11 -4.32 11 -5 11 C-5 12.98 -5 14.96 -5 17 C-5.99 17.33 -6.98 17.66 -8 18 C-7.61323376 11.81174019 -5.51267749 8.03374345 -2 3 C-1.34 2.01 -0.68 1.02 0 0 Z " fill="#538687" transform="translate(243,179)"/>
<path d="M0 0 C0 0.33 0 0.66 0 1 C2.64 1.66 5.28 2.32 8 3 C8 3.33 8 3.66 8 4 C6.27119018 4.05449838 4.54187288 4.09301688 2.8125 4.125 C1.84957031 4.14820313 0.88664062 4.17140625 -0.10546875 4.1953125 C-3.12812778 3.9913544 -5.26769985 3.26874632 -8 2 C-5.44123378 -0.55876622 -3.37797483 -1.68898741 0 0 Z " fill="#B31F43" transform="translate(360,171)"/>
<path d="M0 0 C0.33 1.32 0.66 2.64 1 4 C3.31 4.33 5.62 4.66 8 5 C10.11161731 16.52164009 10.11161731 16.52164009 11 22 C8.05167671 19.56442859 7.4191506 17.77235538 7 14 C6.93044207 11.32698803 6.95465969 8.67507838 7 6 C4.69 6 2.38 6 0 6 C0 4.02 0 2.04 0 0 Z " fill="#751E37" transform="translate(331,107)"/>
<path d="M0 0 C5.28 0 10.56 0 16 0 C16 0.33 16 0.66 16 1 C11.71 1.66 7.42 2.32 3 3 C2.34 4.98 1.68 6.96 1 9 C0.67 9 0.34 9 0 9 C0 6.03 0 3.06 0 0 Z " fill="#EDFEFE" transform="translate(313,113)"/>
<path d="M0 0 C2.64 0 5.28 0 8 0 C8 3.96 8 7.92 8 12 C9.32 11.34 10.64 10.68 12 10 C11.75 11.875 11.75 11.875 11 14 C9.02 14.99 9.02 14.99 7 16 C7 11.05 7 6.1 7 1 C4.69 1 2.38 1 0 1 C0 0.67 0 0.34 0 0 Z " fill="#9D959A" transform="translate(269,271)"/>
<path d="M0 0 C0.33 1.32 0.66 2.64 1 4 C0.01 4.33 -0.98 4.66 -2 5 C-3.21869929 7.50447516 -3.21869929 7.50447516 -4 10 C-5.65 9.67 -7.3 9.34 -9 9 C-9 8.34 -9 7.68 -9 7 C-7.02053408 5.63636792 -5.0180755 4.30581356 -3 3 C-1.20605554 1.37648891 -1.20605554 1.37648891 0 0 Z " fill="#DA325F" transform="translate(317,244)"/>
<path d="M0 0 C1 2 1 2 0.4375 4.5 C-0.15789614 9.26316909 0.89296441 13.37057846 2 18 C0.68 17.34 -0.64 16.68 -2 16 C-2.05423638 14.08364783 -2.09289963 12.16685075 -2.125 10.25 C-2.14820313 9.18265625 -2.17140625 8.1153125 -2.1953125 7.015625 C-2.00487687 4.07529894 -1.52670104 2.47638122 0 0 Z " fill="#87152F" transform="translate(269,210)"/>
<path d="M0 0 C0.66 0 1.32 0 2 0 C2.66 2.64 3.32 5.28 4 8 C2.02 8 0.04 8 -2 8 C-2.33 5.69 -2.66 3.38 -3 1 C-2.34 1.66 -1.68 2.32 -1 3 C-0.67 2.01 -0.34 1.02 0 0 Z " fill="#7AC0C3" transform="translate(241,229)"/>
<path d="M0 0 C0.66 0.33 1.32 0.66 2 1 C0.54362329 2.95981557 -0.91500152 4.91788547 -2.375 6.875 C-2.7875 7.43058594 -3.2 7.98617187 -3.625 8.55859375 C-5.3254573 10.8350124 -6.9879119 12.9879119 -9 15 C-9 8.25257773 -4.42228951 4.53309859 0 0 Z " fill="#7EC6CB" transform="translate(255,180)"/>
<path d="M0 0 C-3 2 -3 2 -5 2 C-5 2.66 -5 3.32 -5 4 C-6.43554025 4.50559908 -7.8735202 5.0042749 -9.3125 5.5 C-10.51326172 5.91765625 -10.51326172 5.91765625 -11.73828125 6.34375 C-14 7 -14 7 -17 7 C-12.84820981 2.38543065 -6.28028709 -0.81035962 0 0 Z " fill="#548586" transform="translate(271,163)"/>
<path d="M0 0 C1.65 0 3.3 0 5 0 C0.35944002 4.19147353 -5.59845756 8 -12 8 C-12 7.34 -12 6.68 -12 6 C-10.68 6 -9.36 6 -8 6 C-8 5.34 -8 4.68 -8 4 C-4.535 3.505 -4.535 3.505 -1 3 C-0.67 2.01 -0.34 1.02 0 0 Z " fill="#FDD6E4" transform="translate(307,249)"/>
<path d="M0 0 C2.97 0.99 5.94 1.98 9 3 C9 3.99 9 4.98 9 6 C10.32 6.66 11.64 7.32 13 8 C12.01 8.495 12.01 8.495 11 9 C9.16015625 8.328125 9.16015625 8.328125 7.0625 7.25 C6.37285156 6.90453125 5.68320312 6.5590625 4.97265625 6.203125 C2.96765097 4.98027029 1.50857833 3.79705256 0 2 C0 1.34 0 0.68 0 0 Z " fill="#A12445" transform="translate(339,163)"/>
<path d="M0 0 C0 0.66 0 1.32 0 2 C-2.125 3.4375 -2.125 3.4375 -5 5 C-6.051875 5.5775 -7.10375 6.155 -8.1875 6.75 C-9.5796875 7.36875 -9.5796875 7.36875 -11 8 C-11.66 7.67 -12.32 7.34 -13 7 C-5.07894737 0 -5.07894737 0 0 0 Z " fill="#D4F4F5" transform="translate(269,174)"/>
<path d="M0 0 C0.33 0 0.66 0 1 0 C1.36068407 6.13162912 0.40749302 9.2073081 -3.5625 13.8125 C-5 15 -5 15 -7 15 C-5.25 11.125 -5.25 11.125 -3 10 C-2.08968728 7.65613191 -2.08968728 7.65613191 -1.375 4.9375 C-1.11460937 4.01839844 -0.85421875 3.09929687 -0.5859375 2.15234375 C-0.39257812 1.44207031 -0.19921875 0.73179687 0 0 Z " fill="#8E4650" transform="translate(346,289)"/>
<path d="M0 0 C0.66 0.33 1.32 0.66 2 1 C1.34 2.32 0.68 3.64 0 5 C-0.66 5 -1.32 5 -2 5 C-2.66 8.3 -3.32 11.6 -4 15 C-4.33 15 -4.66 15 -5 15 C-5.31683168 5.4950495 -5.31683168 5.4950495 -1.375 1.25 C-0.92125 0.8375 -0.4675 0.425 0 0 Z " fill="#E6FAFB" transform="translate(324,281)"/>
<path d="M0 0 C0.99 0 1.98 0 3 0 C5 7.625 5 7.625 5 11 C4.34 11 3.68 11 3 11 C2.34 9.02 1.68 7.04 1 5 C0.67 5 0.34 5 0 5 C0 3.35 0 1.7 0 0 Z " fill="#E51E50" transform="translate(333,114)"/>
<path d="M0 0 C1.32 0.33 2.64 0.66 4 1 C0.24532309 4.05936637 -3.08113061 6 -8 6 C-8 5.01 -8 4.02 -8 3 C-5.36 2.67 -2.72 2.34 0 2 C0 1.34 0 0.68 0 0 Z " fill="#8D1A34" transform="translate(313,258)"/>
<path d="M0 0 C-1.14453125 1.51953125 -1.14453125 1.51953125 -3 3 C-5.69921875 3.07421875 -5.69921875 3.07421875 -8.6875 2.6875 C-10.17830078 2.50767578 -10.17830078 2.50767578 -11.69921875 2.32421875 C-12.45847656 2.21722656 -13.21773438 2.11023438 -14 2 C-14 1.67 -14 1.34 -14 1 C-12.04310963 0.63794536 -10.08442332 0.28558579 -8.125 -0.0625 C-7.03445313 -0.25972656 -5.94390625 -0.45695313 -4.8203125 -0.66015625 C-2 -1 -2 -1 0 0 Z " fill="#D4F6F7" transform="translate(299,238)"/>
<path d="M0 0 C1.33617352 0.97528737 2.6688751 1.95533319 4 2.9375 C4.7425 3.48277344 5.485 4.02804688 6.25 4.58984375 C6.8275 5.05519531 7.405 5.52054688 8 6 C8 6.33 8 6.66 8 7 C6.35 7 4.7 7 3 7 C3 6.01 3 5.02 3 4 C1.35 3.67 -0.3 3.34 -2 3 C-1.34 2.01 -0.68 1.02 0 0 Z " fill="#E2F8F8" transform="translate(272,231)"/>
<path d="M0 0 C0.33 0 0.66 0 1 0 C1.375 2.1875 1.375 2.1875 1 5 C-0.83961648 6.99022836 -2.79186148 8.38989899 -5 10 C-5.99 9.34 -6.98 8.68 -8 8 C-7.67 7.34 -7.34 6.68 -7 6 C-6.195625 5.896875 -5.39125 5.79375 -4.5625 5.6875 C-3.716875 5.460625 -2.87125 5.23375 -2 5 C-0.62533375 2.52363988 -0.62533375 2.52363988 0 0 Z " fill="#9E9897" transform="translate(337,289)"/>
<path d="M0 0 C0.33 0 0.66 0 1 0 C1 2.64 1 5.28 1 8 C-0.98 8.99 -0.98 8.99 -3 10 C-2.69201674 8.51988629 -2.378482 7.04092675 -2.0625 5.5625 C-1.88847656 4.73878906 -1.71445312 3.91507813 -1.53515625 3.06640625 C-1 1 -1 1 0 0 Z " fill="#D73F68" transform="translate(330,220)"/>
<path d="M0 0 C4.75 0.75 4.75 0.75 7 3 C4 5 4 5 1.8125 4.625 C1.214375 4.41875 0.61625 4.2125 0 4 C0 2.68 0 1.36 0 0 Z " fill="#D5305A" transform="translate(332,160)"/>
<path d="M0 0 C0.33 0.66 0.66 1.32 1 2 C1.66 2 2.32 2 3 2 C1.95125002 4.62187494 1.35068687 5.79371361 -1.125 7.25 C-1.74375 7.4975 -2.3625 7.745 -3 8 C-3.33 7.01 -3.66 6.02 -4 5 C-2.68 5 -1.36 5 0 5 C-0.2784375 4.0409375 -0.2784375 4.0409375 -0.5625 3.0625 C-0.706875 2.381875 -0.85125 1.70125 -1 1 C-0.67 0.67 -0.34 0.34 0 0 Z " fill="#AC1B3C" transform="translate(325,246)"/>
<path d="M0 0 C5.66153846 1.47692308 5.66153846 1.47692308 7.375 4.125 C7.684375 5.053125 7.684375 5.053125 8 6 C4.08597051 4.73058503 2.20927127 3.48832306 0 0 Z " fill="#782836" transform="translate(256,253)"/>
<path d="M0 0 C0.33 0 0.66 0 1 0 C1.33 2.97 1.66 5.94 2 9 C1.01 9 0.02 9 -1 9 C-0.67 6.03 -0.34 3.06 0 0 Z " fill="#60989A" transform="translate(234,198)"/>
<path d="M0 0 C1.65 0 3.3 0 5 0 C4.67 0.99 4.34 1.98 4 3 C4.33 3.99 4.66 4.98 5 6 C4.34 6 3.68 6 3 6 C0 2.53846154 0 2.53846154 0 0 Z " fill="#4F8588" transform="translate(240,237)"/>
<path d="M0 0 C1.0326802 2.78823655 1.04509293 3.8677274 0.0625 6.75 C-0.288125 7.4925 -0.63875 8.235 -1 9 C-1.33 9 -1.66 9 -2 9 C-2.125 5.625 -2.125 5.625 -2 2 C-1.34 1.34 -0.68 0.68 0 0 Z " fill="#8B1631" transform="translate(337,226)"/>
</svg>
