<?xml version="1.0" encoding="UTF-8"?>
<svg version="1.1" xmlns="http://www.w3.org/2000/svg" width="850" height="250">
<path d="M0 0 C0 0.66 0 1.32 0 2 C0.53625 2.20625 1.0725 2.4125 1.625 2.625 C4.91978009 4.53250426 7.59363628 7.04819384 10 10 C10 10.66 10 11.32 10 12 C10.66 12 11.32 12 12 12 C12 12.66 12 13.32 12 14 C12.66 14.33 13.32 14.66 14 15 C17.97921333 21.16136258 21 27.57692605 21 35 C21.87785156 34.89171875 21.87785156 34.89171875 22.7734375 34.78125 C36.35790495 33.31265892 49.9995369 33.9585294 63.62109375 34.5078125 C64.81633667 34.55494385 66.01157959 34.6020752 67.24304199 34.65063477 C70.16207702 34.76590783 73.08105844 34.88238792 76 35 C76.0234041 51.90756932 76.04101599 68.81513355 76.05181217 85.72271538 C76.0569592 93.57393817 76.06397144 101.42515087 76.07543945 109.27636719 C76.08543508 116.12284417 76.09186501 122.96931385 76.09408849 129.81579792 C76.09538734 133.43788568 76.09842057 137.05995252 76.10573006 140.68203354 C76.11384102 144.73448345 76.11398801 148.78689746 76.11352539 152.83935547 C76.11712067 154.02834946 76.12071594 155.21734344 76.12442017 156.44236755 C76.10279547 173.99805378 76.10279547 173.99805378 73 182 C72.70996094 182.83402344 72.41992188 183.66804687 72.12109375 184.52734375 C70.11511656 190.26207854 67.83776414 195.62851787 65 201 C64.34 201 63.68 201 63 201 C62.73316406 201.58265625 62.46632813 202.1653125 62.19140625 202.765625 C58.54577504 209.60267762 50.20245933 219.34345099 42.73046875 221.72265625 C42.15941406 221.81417969 41.58835938 221.90570313 41 222 C41 222.66 41 223.32 41 224 C39.56570999 224.67354499 38.12742943 225.33859701 36.6875 226 C35.88699219 226.37125 35.08648437 226.7425 34.26171875 227.125 C32 228 32 228 29 228 C29 228.66 29 229.32 29 230 C28.28972656 230.13277344 27.57945312 230.26554688 26.84765625 230.40234375 C25.46900391 230.66724609 25.46900391 230.66724609 24.0625 230.9375 C23.14597656 231.11152344 22.22945312 231.28554687 21.28515625 231.46484375 C19.04710156 231.77714988 19.04710156 231.77714988 18 233 C15.97505378 233.09676414 13.94667458 233.12186986 11.91941833 233.12025452 C10.5997856 233.12163201 9.28015287 233.12300951 7.92053127 233.12442875 C6.43847572 233.12088147 4.95642037 233.11724357 3.47436523 233.11352539 C1.90231103 233.11321929 0.33025669 233.11335215 -1.24179745 233.11389065 C-5.46629157 233.11411717 -9.69075759 233.10830528 -13.91524506 233.10128021 C-17.8737955 233.09560138 -21.83233897 233.09531797 -25.79089355 233.09460449 C-37.38143279 233.08934917 -48.97196674 233.07538813 -60.5625 233.0625 C-86.446875 233.041875 -112.33125 233.02125 -139 233 C-139 167.66 -139 102.32 -139 35 C-113.38467413 33.83566701 -113.38467413 33.83566701 -101.375 33.875 C-100.12460938 33.87113281 -98.87421875 33.86726563 -97.5859375 33.86328125 C-96.3896875 33.86457031 -95.1934375 33.86585937 -93.9609375 33.8671875 C-92.90696777 33.86831543 -91.85299805 33.86944336 -90.76708984 33.87060547 C-88.34151908 33.9840299 -86.31440225 34.30074915 -84 35 C-84.05220703 33.91138672 -84.05220703 33.91138672 -84.10546875 32.80078125 C-83.77900023 24.13122843 -78.06161931 15.43498752 -72.4375 9.125 C-70.29694519 7.2588753 -68.49721953 6.24860976 -66 5 C-65.67 4.01 -65.34 3.02 -65 2 C-64.34 2 -63.68 2 -63 2 C-63 1.34 -63 0.68 -63 0 C-42.05427596 -11.58831478 -20.90011624 -12.49155883 0 0 Z M-46 9 C-46 9.66 -46 10.32 -46 11 C-47.0828125 11.12181641 -47.0828125 11.12181641 -48.1875 11.24609375 C-54.8239095 13.02502019 -60.38330515 19.5989143 -64 25.25 C-66.17908643 29.12307588 -68 32.48502677 -68 37 C-66.91460937 37.12117188 -65.82921875 37.24234375 -64.7109375 37.3671875 C-63.26558596 37.53612469 -61.82027558 37.70541425 -60.375 37.875 C-59.66214844 37.95363281 -58.94929688 38.03226563 -58.21484375 38.11328125 C-53.90807108 38.62693304 -50.0877492 39.47623104 -46 41 C-45.02417969 41.34160156 -44.04835938 41.68320312 -43.04296875 42.03515625 C-42.10066406 42.37417969 -41.15835938 42.71320312 -40.1875 43.0625 C-39.23230469 43.40410156 -38.27710938 43.74570312 -37.29296875 44.09765625 C-35 45 -35 45 -34 46 C-30.42469485 46.55864143 -28.05203059 45.67922404 -24.875 44.1875 C-15.33976554 39.74191293 -5.37273501 38.2871277 5 37 C4.28159908 33.20088882 3.27444595 29.65341173 2 26 C1.34 26 0.68 26 0 26 C-0.2475 25.278125 -0.495 24.55625 -0.75 23.8125 C-3.00128717 18.74710386 -6.40203265 15.06531157 -11 12 C-14.18762109 11.20309162 -14.18762109 11.20309162 -17 11 C-17 10.34 -17 9.68 -17 9 C-27.31916689 6.58716766 -35.68083311 6.58716766 -46 9 Z " fill="#60B954" transform="translate(208,13)"/>
<path d="M0 0 C7.42768301 5.90199677 13.1109969 11.390906 17.203125 19.984375 C17.863125 20.314375 18.523125 20.644375 19.203125 20.984375 C19.30496094 20.24960938 19.40679687 19.51484375 19.51171875 18.7578125 C21.66750294 10.1103166 30.61874208 3.01271927 37.76953125 -1.7109375 C50.3858964 -9.14077416 65.18449642 -9.57550841 79.296875 -6.296875 C92.04211635 -1.6182421 102.91619933 8.17305616 108.94921875 20.22265625 C114.47992522 32.40399417 115.48652969 46.70501211 110.859375 59.4296875 C110.6428125 59.94273437 110.42625 60.45578125 110.203125 60.984375 C109.543125 60.984375 108.883125 60.984375 108.203125 60.984375 C108.05810547 62.05945313 108.05810547 62.05945313 107.91015625 63.15625 C105.59050168 72.4348683 97.45645188 78.84595364 90.1328125 84.3046875 C87.06126085 86.06571045 84.70298966 86.64165828 81.203125 86.984375 C81.203125 87.644375 81.203125 88.304375 81.203125 88.984375 C69.58222876 93.78120686 56.78880452 93.50082634 45.203125 88.984375 C42.71733437 89.23580039 41.55641092 89.6489889 39.73828125 91.375 C39.25230469 91.98859375 38.76632813 92.6021875 38.265625 93.234375 C34.34092906 97.95600701 30.03079038 102.21400006 25.64672852 106.50292969 C23.21141749 108.90186053 21.1061538 111.1298318 19.203125 113.984375 C14.65898093 113.61912465 12.44436901 110.31827117 9.640625 107.109375 C8.56844547 105.93292153 7.49551323 104.75715366 6.421875 103.58203125 C4.35432878 101.29252059 2.3432288 98.96756434 0.359375 96.60546875 C-4.27063589 90.99925091 -4.27063589 90.99925091 -10.859375 88.71484375 C-14.46695824 89.33959449 -17.53053869 90.35120684 -20.796875 91.984375 C-23.1902903 92.10882102 -25.58775578 92.16004569 -27.984375 92.171875 C-29.27730469 92.18605469 -30.57023437 92.20023437 -31.90234375 92.21484375 C-44.33701272 91.47899072 -56.65161401 84.76504003 -64.984375 75.671875 C-66.27628227 74.1267539 -67.54768549 72.56423233 -68.796875 70.984375 C-69.38984375 70.24960938 -69.9828125 69.51484375 -70.59375 68.7578125 C-74.63550482 63.31106672 -75.76867959 58.73717592 -75.796875 51.984375 C-76.456875 51.984375 -77.116875 51.984375 -77.796875 51.984375 C-77.796875 45.054375 -77.796875 38.124375 -77.796875 30.984375 C-77.136875 30.984375 -76.476875 30.984375 -75.796875 30.984375 C-75.755625 29.705625 -75.714375 28.426875 -75.671875 27.109375 C-74.64887968 18.05870807 -68.25874173 10.1034708 -61.796875 3.984375 C-44.23102443 -9.92308698 -19.10967736 -13.77177866 0 0 Z " fill="#444543" transform="translate(158.796875,90.015625)"/>
<path d="M0 0 C0 0.66 0 1.32 0 2 C0.53625 2.20625 1.0725 2.4125 1.625 2.625 C4.91978009 4.53250426 7.59363628 7.04819384 10 10 C10 10.66 10 11.32 10 12 C10.66 12 11.32 12 12 12 C12 12.66 12 13.32 12 14 C12.66 14.33 13.32 14.66 14 15 C17.97921333 21.16136258 21 27.57692605 21 35 C21.87785156 34.89171875 21.87785156 34.89171875 22.7734375 34.78125 C36.35790495 33.31265892 49.9995369 33.9585294 63.62109375 34.5078125 C64.81633667 34.55494385 66.01157959 34.6020752 67.24304199 34.65063477 C70.16207702 34.76590783 73.08105844 34.88238792 76 35 C76.0234041 51.90756932 76.04101599 68.81513355 76.05181217 85.72271538 C76.0569592 93.57393817 76.06397144 101.42515087 76.07543945 109.27636719 C76.08543508 116.12284417 76.09186501 122.96931385 76.09408849 129.81579792 C76.09538734 133.43788568 76.09842057 137.05995252 76.10573006 140.68203354 C76.11384102 144.73448345 76.11398801 148.78689746 76.11352539 152.83935547 C76.11712067 154.02834946 76.12071594 155.21734344 76.12442017 156.44236755 C76.10279547 173.99805378 76.10279547 173.99805378 73 182 C72.70996094 182.83402344 72.41992188 183.66804687 72.12109375 184.52734375 C70.11511656 190.26207854 67.83776414 195.62851787 65 201 C64.34 201 63.68 201 63 201 C62.73316406 201.58265625 62.46632813 202.1653125 62.19140625 202.765625 C58.54577504 209.60267762 50.20245933 219.34345099 42.73046875 221.72265625 C42.15941406 221.81417969 41.58835938 221.90570313 41 222 C41 222.66 41 223.32 41 224 C39.56570999 224.67354499 38.12742943 225.33859701 36.6875 226 C35.88699219 226.37125 35.08648437 226.7425 34.26171875 227.125 C32 228 32 228 29 228 C29 228.66 29 229.32 29 230 C28.28972656 230.13277344 27.57945312 230.26554688 26.84765625 230.40234375 C25.46900391 230.66724609 25.46900391 230.66724609 24.0625 230.9375 C23.14597656 231.11152344 22.22945312 231.28554687 21.28515625 231.46484375 C19.04710156 231.77714988 19.04710156 231.77714988 18 233 C15.97505378 233.09676414 13.94667458 233.12186986 11.91941833 233.12025452 C10.5997856 233.12163201 9.28015287 233.12300951 7.92053127 233.12442875 C6.43847572 233.12088147 4.95642037 233.11724357 3.47436523 233.11352539 C1.90231103 233.11321929 0.33025669 233.11335215 -1.24179745 233.11389065 C-5.46629157 233.11411717 -9.69075759 233.10830528 -13.91524506 233.10128021 C-17.8737955 233.09560138 -21.83233897 233.09531797 -25.79089355 233.09460449 C-37.38143279 233.08934917 -48.97196674 233.07538813 -60.5625 233.0625 C-86.446875 233.041875 -112.33125 233.02125 -139 233 C-139 167.66 -139 102.32 -139 35 C-113.38467413 33.83566701 -113.38467413 33.83566701 -101.375 33.875 C-100.12460938 33.87113281 -98.87421875 33.86726563 -97.5859375 33.86328125 C-96.3896875 33.86457031 -95.1934375 33.86585937 -93.9609375 33.8671875 C-92.90696777 33.86831543 -91.85299805 33.86944336 -90.76708984 33.87060547 C-88.34151908 33.9840299 -86.31440225 34.30074915 -84 35 C-84.05220703 33.91138672 -84.05220703 33.91138672 -84.10546875 32.80078125 C-83.77900023 24.13122843 -78.06161931 15.43498752 -72.4375 9.125 C-70.29694519 7.2588753 -68.49721953 6.24860976 -66 5 C-65.67 4.01 -65.34 3.02 -65 2 C-64.34 2 -63.68 2 -63 2 C-63 1.34 -63 0.68 -63 0 C-42.05427596 -11.58831478 -20.90011624 -12.49155883 0 0 Z M-46 9 C-46 9.66 -46 10.32 -46 11 C-47.0828125 11.12181641 -47.0828125 11.12181641 -48.1875 11.24609375 C-54.8239095 13.02502019 -60.38330515 19.5989143 -64 25.25 C-66.17908643 29.12307588 -68 32.48502677 -68 37 C-66.91460937 37.12117188 -65.82921875 37.24234375 -64.7109375 37.3671875 C-63.26558596 37.53612469 -61.82027558 37.70541425 -60.375 37.875 C-59.66214844 37.95363281 -58.94929688 38.03226563 -58.21484375 38.11328125 C-53.90807108 38.62693304 -50.0877492 39.47623104 -46 41 C-45.02417969 41.34160156 -44.04835938 41.68320312 -43.04296875 42.03515625 C-42.10066406 42.37417969 -41.15835938 42.71320312 -40.1875 43.0625 C-39.23230469 43.40410156 -38.27710938 43.74570312 -37.29296875 44.09765625 C-35 45 -35 45 -34 46 C-30.42469485 46.55864143 -28.05203059 45.67922404 -24.875 44.1875 C-15.33976554 39.74191293 -5.37273501 38.2871277 5 37 C4.28159908 33.20088882 3.27444595 29.65341173 2 26 C1.34 26 0.68 26 0 26 C-0.2475 25.278125 -0.495 24.55625 -0.75 23.8125 C-3.00128717 18.74710386 -6.40203265 15.06531157 -11 12 C-14.18762109 11.20309162 -14.18762109 11.20309162 -17 11 C-17 10.34 -17 9.68 -17 9 C-27.31916689 6.58716766 -35.68083311 6.58716766 -46 9 Z M-129 45 C-129 104.07 -129 163.14 -129 224 C-106.51875 224.04125 -84.0375 224.0825 -60.875 224.125 C-50.25932861 224.15231201 -50.25932861 224.15231201 -39.42919922 224.18017578 C-33.04005529 224.18686801 -33.04005529 224.18686801 -26.65090942 224.19088745 C-23.82315886 224.19273753 -20.99548473 224.20017922 -18.16775513 224.21115112 C-14.54407929 224.22502187 -10.92051221 224.22895452 -7.2968123 224.22614455 C-5.36195771 224.22700429 -3.42711473 224.23765119 -1.4922924 224.2488575 C6.85703022 224.229331 14.76856791 223.3803901 23 222 C23 221.34 23 220.68 23 220 C24.3921875 219.9690625 24.3921875 219.9690625 25.8125 219.9375 C36.30756027 218.39286411 46.56847272 208.39084257 53.0390625 200.51953125 C57.14043579 194.89105088 62 188.18693418 62 181 C62.66 181 63.32 181 64 181 C65.55308261 172.34028391 66.2843373 164.02386693 66.22705078 155.2331543 C66.22734283 154.03156677 66.22763489 152.82997925 66.22793579 151.59197998 C66.2267931 148.34278194 66.21686389 145.09376329 66.20278788 141.84460044 C66.19016146 138.43203771 66.18910074 135.0194703 66.18673706 131.60688782 C66.18055689 125.16512321 66.16419373 118.72342767 66.14403808 112.28169328 C66.11936025 104.21710572 66.10851371 96.1525066 66.09765625 88.08789062 C66.07825941 73.72520682 66.03818167 59.36267339 66 45 C47.19 45 28.38 45 9 45 C9 45.66 9 46.32 9 47 C8.05640625 47.03738281 7.1128125 47.07476562 6.140625 47.11328125 C-5.5234011 47.7105356 -15.97616647 50.11474232 -27 54 C-27.99 54.33 -28.98 54.66 -30 55 C-30 55.66 -30 56.32 -30 57 C-31.093125 56.505 -32.18625 56.01 -33.3125 55.5 C-36.79966245 53.81160094 -36.79966245 53.81160094 -40 54 C-40 53.34 -40 52.68 -40 52 C-41.20398438 51.65066406 -42.40796875 51.30132812 -43.6484375 50.94140625 C-45.2239875 50.48187083 -46.79950675 50.02222994 -48.375 49.5625 C-49.1690625 49.33240234 -49.963125 49.10230469 -50.78125 48.86523438 C-51.54179687 48.64287109 -52.30234375 48.42050781 -53.0859375 48.19140625 C-53.7876709 47.98717041 -54.4894043 47.78293457 -55.21240234 47.57250977 C-57 47 -57 47 -59 46 C-82.26697848 44.21023242 -105.66428584 45 -129 45 Z " fill="#4A4C4A" transform="translate(208,13)"/>
<path d="M0 0 C6.99934175 4.36225872 14.1587092 9.54529158 18 17 C18.38671875 17.63164063 18.7734375 18.26328125 19.171875 18.9140625 C23.96670705 28.20815476 23.6155649 41.61434044 21.09375 51.58203125 C20.18962265 53.8391206 19.25527899 55.92094417 18 58 C17.34 58 16.68 58 16 58 C15.773125 58.70125 15.54625 59.4025 15.3125 60.125 C11.65999421 68.12572696 5.02720739 72.75025525 -2.828125 76.265625 C-10.02445578 78.94070084 -16.37965163 79.51092207 -24 79 C-25.06154297 78.98646484 -25.06154297 78.98646484 -26.14453125 78.97265625 C-35.56429063 78.4930351 -43.7369341 72.18513084 -49.984375 65.578125 C-53.83841362 60.64854072 -58 54.40661166 -58 48 C-58.66 48 -59.32 48 -60 48 C-60.54301826 30.84464537 -58.66976706 19.30284196 -46.6875 6.1875 C-34.42874082 -5.51906282 -14.87395537 -7.60224386 0 0 Z " fill="#F9F9F9" transform="translate(241,94)"/>
<path d="M0 0 C8.75993729 6.09644284 16.56758682 13.55104799 18.5390625 24.43359375 C20.0001708 37.72140883 19.9131936 49.62878635 11.828125 60.88671875 C7.19982571 66.39896362 1.2789759 73.11326477 -6.171875 74.19921875 C-7.120625 74.19921875 -8.069375 74.19921875 -9.046875 74.19921875 C-9.046875 74.85921875 -9.046875 75.51921875 -9.046875 76.19921875 C-13.21047846 77.36776632 -17.25182301 77.34609508 -21.546875 77.32421875 C-22.68576172 77.33001953 -22.68576172 77.33001953 -23.84765625 77.3359375 C-27.41701956 77.32968643 -30.61419102 77.16262811 -34.046875 76.19921875 C-34.046875 75.53921875 -34.046875 74.87921875 -34.046875 74.19921875 C-35.036875 74.15796875 -36.026875 74.11671875 -37.046875 74.07421875 C-43.11736263 73.21228339 -47.48639856 69.01274542 -51.359375 64.51171875 C-52.1946875 63.36703125 -52.1946875 63.36703125 -53.046875 62.19921875 C-53.76230469 61.49345703 -53.76230469 61.49345703 -54.4921875 60.7734375 C-61.41802733 53.76058963 -63.0095074 45.20436945 -63.296875 35.63671875 C-63.18980413 30.71145885 -62.16523412 25.98220107 -61.046875 21.19921875 C-60.386875 21.19921875 -59.726875 21.19921875 -59.046875 21.19921875 C-58.9540625 20.31105469 -58.86125 19.42289063 -58.765625 18.5078125 C-57.02757155 10.50709907 -49.61310786 4.19026076 -43.234375 -0.52734375 C-40.08603369 -2.36012815 -37.66368373 -2.72382787 -34.046875 -2.80078125 C-34.046875 -3.46078125 -34.046875 -4.12078125 -34.046875 -4.80078125 C-22.80206748 -8.18247153 -9.95058478 -5.88105075 0 0 Z " fill="#F9F9F9" transform="translate(152.046875,95.80078125)"/>
<path d="M0 0 C18.81 0 37.62 0 57 0 C57.08032734 30.21646652 57.08032734 30.21646652 57.10050774 45.20589352 C57.11156483 53.29329227 57.12557421 61.3806495 57.15087891 69.46801758 C57.17091283 75.87394407 57.18373999 82.27983913 57.18817699 88.68579608 C57.19076757 92.07270725 57.19678747 95.45952859 57.21146011 98.84641075 C57.22608516 102.642045 57.22797334 106.43749618 57.22705078 110.2331543 C57.23424133 111.33655655 57.24143188 112.4399588 57.24884033 113.57679749 C57.22891551 121.20668919 56.34632712 128.49311625 55 136 C54.34 136 53.68 136 53 136 C52.88398438 136.88429687 52.76796875 137.76859375 52.6484375 138.6796875 C50.52657289 149.54465687 42.46984813 157.38394487 35 165 C34.74089844 164.46375 34.48179687 163.9275 34.21484375 163.375 C25.96961672 147.25571372 15.06322116 135.24718335 -0.53125 125.98046875 C-1.0159375 125.65691406 -1.500625 125.33335937 -2 125 C-2 124.67 -2 124.34 -2 124 C-0.98679688 123.95101562 0.02640625 123.90203125 1.0703125 123.8515625 C2.42189911 123.77647436 3.77346038 123.70092919 5.125 123.625 C5.79015625 123.5940625 6.4553125 123.563125 7.140625 123.53125 C11.42185816 123.27941276 14.97073841 122.40396367 19 121 C20.32 121 21.64 121 23 121 C23 120.34 23 119.68 23 119 C23.54527344 118.79246094 24.09054688 118.58492188 24.65234375 118.37109375 C35.83233833 113.80354041 44.39333203 106.49045115 49.19140625 95.1953125 C49.45824219 94.47085938 49.72507812 93.74640625 50 93 C50.66 93 51.32 93 52 93 C52.144375 91.906875 52.28875 90.81375 52.4375 89.6875 C53 86 53 86 54 83 C54.98748851 67.36206718 53.32806854 54.44664671 43 42 C42.49984375 41.37609375 41.9996875 40.7521875 41.484375 40.109375 C33.21442007 30.83700129 22.46209723 26.21118096 10.32421875 25.17578125 C8.67873047 25.08876953 8.67873047 25.08876953 7 25 C6.26394531 24.93167969 5.52789062 24.86335938 4.76953125 24.79296875 C-8.03834301 24.05562844 -18.51082684 28.98240984 -28 37 C-33.08047315 41.7928992 -36.74176698 46.3664405 -39 53 C-39.99 52.67 -40.98 52.34 -42 52 C-41.67 38.8 -41.34 25.6 -41 12 C-40.34 12 -39.68 12 -39 12 C-39 11.34 -39 10.68 -39 10 C-35.07587103 8.33521801 -31.10871633 7.10473772 -27 6 C-26.14535156 5.74992187 -25.29070312 5.49984375 -24.41015625 5.2421875 C-16.24213677 2.98364789 -8.43448638 2.33415315 0 2 C0 1.34 0 0.68 0 0 Z " fill="#4E9C4D" transform="translate(217,58)"/>
<path d="M0 0 C1.4291574 1.2578926 2.81003038 2.57169742 4.15234375 3.921875 C4.92900391 4.70046875 5.70566406 5.4790625 6.50585938 6.28125 C7.70952148 7.50328125 7.70952148 7.50328125 8.9375 8.75 C9.73607422 9.54921875 10.53464844 10.3484375 11.35742188 11.171875 C26.56915909 26.49703859 23 26.47303278 23 56 C-3.07 56 -29.14 56 -56 56 C-53 42 -53 42 -50 36 C-49.34 36 -48.68 36 -48 36 C-47.9175 35.29875 -47.835 34.5975 -47.75 33.875 C-46.81990995 30.3096548 -45.23313631 27.90984428 -43 25 C-42.34 25 -41.68 25 -41 25 C-40.67 23.68 -40.34 22.36 -40 21 C-39.34 21 -38.68 21 -38 21 C-37.731875 20.401875 -37.46375 19.80375 -37.1875 19.1875 C-36.00082594 17.00152146 -34.90400887 15.58667406 -33 14 C-32.34 14 -31.68 14 -31 14 C-31 13.34 -31 12.68 -31 12 C-28.953125 10.30859375 -28.953125 10.30859375 -26.25 8.4375 C-24.92742187 7.50744141 -24.92742187 7.50744141 -23.578125 6.55859375 C-21.28676489 5.17336241 -19.61056895 4.44526059 -17 4 C-17 3.34 -17 2.68 -17 2 C-4.70720514 -2.79210647 -4.70720514 -2.79210647 0 0 Z " fill="#83C466" transform="translate(153,180)"/>
<path d="M0 0 C0 0.66 0 1.32 0 2 C1.0209375 2.061875 1.0209375 2.061875 2.0625 2.125 C7.07741494 3.61880445 10.62656691 6.69032274 13.30078125 11.1875 C17.92126033 21.13413133 18.19153137 31.56614744 15 42 C12.34407697 48.5616922 5.61466306 52.44125856 -0.25 55.9375 C-8.75499502 58.34724859 -17.05662768 57.818929 -25 54 C-25.33 53.67 -25.66 53.34 -26 53 C-26.33 61.58 -26.66 70.16 -27 79 C-34 79 -34 79 -36.8125 76.8125 C-41.06929489 71.339478 -41.30812985 66.69413157 -41.30078125 60 C-41.30506638 59.12786865 -41.3093515 58.2557373 -41.31376648 57.35717773 C-41.31950004 55.51140202 -41.32001722 53.66560372 -41.31567383 51.81982422 C-41.31254167 49.03702598 -41.33588747 46.25532103 -41.36132812 43.47265625 C-41.45029003 18.03040605 -41.45029003 18.03040605 -35 9 C-24.64608532 -0.58464793 -13.85137409 -3.24069884 0 0 Z M-23.76953125 16.19140625 C-28.45672411 23.08083576 -27.60105384 32.93708813 -28 41 C-26.39125 41.185625 -26.39125 41.185625 -24.75 41.375 C-21.50101733 41.91649711 -19.83172611 42.57552115 -17 44 C-12.15939906 44.71004584 -7.21897541 45.07320497 -2.73046875 42.90234375 C1.46902332 39.58695527 3.15551145 36.34842746 4 31 C4.61757737 24.08313351 2.98090478 19.45006644 -1.375 14.0625 C-5.39817866 11.03755364 -10.00931701 11.2521772 -14.859375 11.45703125 C-18.8394058 12.14512115 -21.02489175 13.25701389 -23.76953125 16.19140625 Z " fill="#4FBA55" transform="translate(556,114)"/>
<path d="M0 0 C0.06974839 7.81519331 0.12293663 15.63031263 0.15543652 23.44573975 C0.17104099 27.07542985 0.19218257 30.70490578 0.22631836 34.33447266 C0.25909979 37.84229617 0.27689219 41.34991468 0.28463173 44.85787964 C0.29280918 46.8363929 0.31619824 48.81482458 0.33988953 50.79321289 C0.3411522 57.59524979 -0.06568882 62.82677786 -3 69 C-3.66 69 -4.32 69 -5 69 C-5.2784375 70.0828125 -5.2784375 70.0828125 -5.5625 71.1875 C-7.4956322 74.96971517 -10.25683039 77.04088005 -14 79 C-14.99 79 -15.98 79 -17 79 C-17 79.66 -17 80.32 -17 81 C-20.72539628 81.86286752 -24.17881325 82.13474793 -28 82.125 C-29.010625 82.12757813 -30.02125 82.13015625 -31.0625 82.1328125 C-33.81714744 82.00826727 -36.31838803 81.62110865 -39 81 C-39 80.34 -39 79.68 -39 79 C-40.36125 78.9071875 -40.36125 78.9071875 -41.75 78.8125 C-45.76881884 77.80779529 -46.6763194 76.31954371 -49 73 C-49.66 72.67 -50.32 72.34 -51 72 C-52.25390625 70.109375 -52.25390625 70.109375 -53.5625 67.75 C-54.21412109 66.59757812 -54.21412109 66.59757812 -54.87890625 65.421875 C-57.97733471 58.72840586 -58.12747025 50.22947388 -56.24609375 43.171875 C-52.92770816 34.47900608 -48.10178858 29.50733308 -40 25 C-36.47919333 23.75736235 -32.9604264 23.79860821 -29.25 23.75 C-28.07953125 23.72421875 -26.9090625 23.6984375 -25.703125 23.671875 C-21.28523909 24.06333325 -18.07901913 25.29292151 -14 27 C-13.93941406 25.73542969 -13.87882813 24.47085938 -13.81640625 23.16796875 C-13.73199096 21.50780129 -13.64734345 19.84764563 -13.5625 18.1875 C-13.52318359 17.35412109 -13.48386719 16.52074219 -13.44335938 15.66210938 C-13.38051758 14.45844727 -13.38051758 14.45844727 -13.31640625 13.23046875 C-13.27974854 12.49207764 -13.24309082 11.75368652 -13.20532227 10.99291992 C-13 9 -13 9 -12 6 C-11.34 6 -10.68 6 -10 6 C-10 5.01 -10 4.02 -10 3 C-6.27034861 0.96564469 -4.33094958 0 0 0 Z M-37 38 C-37 38.66 -37 39.32 -37 40 C-37.8971875 40.2784375 -37.8971875 40.2784375 -38.8125 40.5625 C-42.01526308 42.66717288 -43.01922046 45.43416582 -44 49 C-44.78057626 55.14703802 -43.75481175 58.24878509 -40.2890625 63.3359375 C-38.95938288 65.12459881 -38.95938288 65.12459881 -37 67 C-36.01 67 -35.02 67 -34 67 C-34 67.66 -34 68.32 -34 69 C-30.04 69 -26.08 69 -22 69 C-22 68.34 -22 67.68 -22 67 C-21.2575 66.814375 -20.515 66.62875 -19.75 66.4375 C-16.0356628 64.49591464 -14.4900509 61.80088495 -13 58 C-12.55669884 54.99348275 -12.61497851 52.0926938 -12.75 49.0625 C-12.77707031 47.89364258 -12.77707031 47.89364258 -12.8046875 46.70117188 C-12.85133617 44.80023869 -12.92306171 42.89994831 -13 41 C-19.78653282 37.07187765 -29.54472959 34.2723648 -37 38 Z " fill="#46B64D" transform="translate(693,89)"/>
<path d="M0 0 C4.76156841 3.90838636 7.04323567 7.11845681 9.375 12.875 C9.87 19.805 9.87 19.805 10.375 26.875 C-4.145 27.205 -18.665 27.535 -33.625 27.875 C-30.45996027 34.48218229 -30.45996027 34.48218229 -24.625 37.875 C-17.68585254 38.79072315 -17.68585254 38.79072315 -11.4140625 36.34765625 C-10.82367187 35.86167969 -10.23328125 35.37570313 -9.625 34.875 C-8.965 34.875 -8.305 34.875 -7.625 34.875 C-7.295 33.885 -6.965 32.895 -6.625 31.875 C-1.65824843 32.34802396 1.52652557 33.66793798 5.375 36.875 C5.375 38.195 5.375 39.515 5.375 40.875 C4.715 40.875 4.055 40.875 3.375 40.875 C3.08625 41.473125 2.7975 42.07125 2.5 42.6875 C1.375 44.875 1.375 44.875 -0.625 47.875 C-3.25 48.5625 -3.25 48.5625 -5.625 48.875 C-5.625 49.535 -5.625 50.195 -5.625 50.875 C-9.56089067 52.16646413 -13.53235132 52.02224266 -17.625 52 C-18.69234375 52.00580078 -18.69234375 52.00580078 -19.78125 52.01171875 C-23.20038017 52.00533978 -26.35793006 51.94700732 -29.625 50.875 C-29.625 50.215 -29.625 49.555 -29.625 48.875 C-30.305625 48.83375 -30.98625 48.7925 -31.6875 48.75 C-38.95008187 46.58667774 -43.02808143 40.33096729 -46.68359375 34.05859375 C-49.54163168 27.42936884 -49.14001176 19.49345199 -46.625 12.875 C-46.25375 11.740625 -45.8825 10.60625 -45.5 9.4375 C-45.21125 8.591875 -44.9225 7.74625 -44.625 6.875 C-43.965 6.875 -43.305 6.875 -42.625 6.875 C-42.36589844 6.27945313 -42.10679687 5.68390625 -41.83984375 5.0703125 C-40.53606383 2.71428576 -39.25709396 1.45018257 -37.1875 -0.25 C-36.59066406 -0.74757813 -35.99382813 -1.24515625 -35.37890625 -1.7578125 C-24.87146425 -9.94846885 -10.17400382 -7.17675229 0 0 Z M-29.1015625 10.37890625 C-31.56418536 12.81002872 -31.56418536 12.81002872 -32.625 15.875 C-23.385 15.875 -14.145 15.875 -4.625 15.875 C-6.80771049 10.41822378 -7.56638739 9.45029369 -12.625 6.875 C-19.04249151 5.1873949 -24.19909733 5.38565469 -29.1015625 10.37890625 Z " fill="#48B74F" transform="translate(623.625,119.125)"/>
<path d="M0 0 C4.21467764 3.31277131 6.80106593 7.26869137 7.8984375 12.4921875 C7.98075275 13.83492565 8.01633059 15.18111537 8.01196289 16.52636719 C8.01188736 17.30687439 8.01181183 18.08738159 8.01173401 18.89154053 C8.00657272 19.72397278 8.00141144 20.55640503 7.99609375 21.4140625 C7.9946788 22.27404846 7.99326385 23.13403442 7.99180603 24.02008057 C7.98621847 26.76081859 7.97366825 29.50147426 7.9609375 32.2421875 C7.95592089 34.1028634 7.95135827 35.96354059 7.94726562 37.82421875 C7.93625311 42.38023996 7.91899701 46.93619978 7.8984375 51.4921875 C3.58936696 51.6293271 1.36382112 51.20829899 -2.1015625 48.4921875 C-3.4140625 45.8046875 -3.4140625 45.8046875 -4.1015625 43.4921875 C-4.3284375 44.2965625 -4.5553125 45.1009375 -4.7890625 45.9296875 C-5.2221875 46.7753125 -5.6553125 47.6209375 -6.1015625 48.4921875 C-8.7265625 49.3046875 -8.7265625 49.3046875 -11.1015625 49.4921875 C-11.1015625 50.1521875 -11.1015625 50.8121875 -11.1015625 51.4921875 C-17.49316263 53.38373503 -24.48331999 53.23402288 -30.8515625 51.4296875 C-36.71354822 47.93504217 -42.12026253 43.7686085 -45.1015625 37.4921875 C-45.6584375 36.5434375 -46.2153125 35.5946875 -46.7890625 34.6171875 C-49.95473314 26.92191367 -49.13196251 17.12529535 -46.1015625 9.5546875 C-45.46144532 8.1877706 -44.80532517 6.82745149 -44.1015625 5.4921875 C-43.4415625 5.4921875 -42.7815625 5.4921875 -42.1015625 5.4921875 C-41.8746875 4.9146875 -41.6478125 4.3371875 -41.4140625 3.7421875 C-38.77721828 -0.77811688 -34.56397487 -3.26688413 -29.6796875 -4.97265625 C-19.03590695 -7.18204706 -9.08658365 -5.88364995 0 0 Z M-32.1015625 12.4921875 C-32.1015625 13.1521875 -32.1015625 13.8121875 -32.1015625 14.4921875 C-32.7615625 14.4921875 -33.4215625 14.4921875 -34.1015625 14.4921875 C-35.75724829 20.34766163 -36.35912506 26.82931835 -33.4765625 32.3671875 C-30.38683228 36.43262201 -27.90981952 39.04853778 -22.703125 39.87109375 C-16.9123564 40.14063403 -13.44263093 39.37630136 -9.1015625 35.4921875 C-9.1015625 34.8321875 -9.1015625 34.1721875 -9.1015625 33.4921875 C-7.7815625 33.1621875 -6.4615625 32.8321875 -5.1015625 32.4921875 C-5.02052846 29.57496202 -4.96105169 26.65999234 -4.9140625 23.7421875 C-4.88892578 22.9171875 -4.86378906 22.0921875 -4.83789062 21.2421875 C-4.7642053 16.38247982 -4.7642053 16.38247982 -6.48828125 11.9140625 C-7.99322494 10.27178717 -7.99322494 10.27178717 -10.1015625 10.4921875 C-10.1015625 9.8321875 -10.1015625 9.1721875 -10.1015625 8.4921875 C-18.04692436 5.84373355 -26.54738911 5.82717943 -32.1015625 12.4921875 Z " fill="#48B74F" transform="translate(776.1015625,118.5078125)"/>
<path d="M0 0 C0 14.52 0 29.04 0 44 C2.64 43.67 5.28 43.34 8 43 C8.2475 42.13375 8.495 41.2675 8.75 40.375 C10.25173905 36.32030457 11.9784662 32.0107669 16 30 C16.33 28.35 16.66 26.7 17 25 C21.95 25 26.9 25 32 25 C31.24872886 28.75635569 30.75994274 30.83210307 29 34 C28.34 34 27.68 34 27 34 C26.34 36.31 25.68 38.62 25 41 C24.34 41 23.68 41 23 41 C22.690625 41.804375 22.38125 42.60875 22.0625 43.4375 C21 46 21 46 20 47 C20.48210937 47.37511719 20.96421875 47.75023437 21.4609375 48.13671875 C22.09257812 48.64847656 22.72421875 49.16023438 23.375 49.6875 C24.00148438 50.18636719 24.62796875 50.68523437 25.2734375 51.19921875 C28.72468988 54.79882814 29.24939497 58.67914993 29.1953125 63.51953125 C29.18886719 64.54111328 29.18242187 65.56269531 29.17578125 66.61523438 C29.15902344 67.67033203 29.14226562 68.72542969 29.125 69.8125 C29.11597656 70.88693359 29.10695313 71.96136719 29.09765625 73.06835938 C29.07415306 75.71246854 29.04129575 78.35611872 29 81 C23.296875 81.171875 23.296875 81.171875 20.625 79.625 C20.08875 79.08875 19.5525 78.5525 19 78 C19 77.34 19 76.68 19 76 C18.34 76 17.68 76 17 76 C15.47893366 72.95786733 15.62570662 69.71952428 15.4375 66.375 C15.39431641 65.66859375 15.35113281 64.9621875 15.30664062 64.234375 C15.20055249 62.48981463 15.09977111 60.74493303 15 59 C14.34 59 13.68 59 13 59 C13 58.34 13 57.68 13 57 C8.71 57 4.42 57 0 57 C0 64.92 0 72.84 0 81 C-6 81 -6 81 -8.375 79.625 C-8.91125 79.08875 -9.4475 78.5525 -10 78 C-10 77.34 -10 76.68 -10 76 C-10.66 76 -11.32 76 -12 76 C-13.10399605 72.68801184 -13.12695796 70.22853408 -13.12939453 66.74023438 C-13.13254669 65.44879517 -13.13569885 64.15735596 -13.13894653 62.82678223 C-13.13715664 61.41577114 -13.13510566 60.00476036 -13.1328125 58.59375 C-13.13348612 57.14790836 -13.13445663 55.70206684 -13.13571167 54.25622559 C-13.13718592 51.22663291 -13.13504283 48.19706972 -13.13037109 45.16748047 C-13.12467396 41.28356326 -13.12795442 37.39971515 -13.13394356 33.51580048 C-13.13755651 30.53041055 -13.1364072 27.54503702 -13.13381577 24.55964661 C-13.13314853 23.12750744 -13.13396782 21.6953668 -13.13629532 20.26322937 C-13.13883382 18.26207508 -13.13427896 16.26091557 -13.12939453 14.25976562 C-13.12859894 13.12075806 -13.12780334 11.98175049 -13.12698364 10.80822754 C-13 8 -13 8 -12 5 C-11.34 5 -10.68 5 -10 5 C-10 4.34 -10 3.68 -10 3 C-6.23806853 0.20542234 -4.9236197 0 0 0 Z " fill="#47B74E" transform="translate(421,89)"/>
<path d="M0 0 C2.97 0 5.94 0 9 0 C9 0.66 9 1.32 9 2 C10.33611328 2.11601563 10.33611328 2.11601563 11.69921875 2.234375 C15.59745017 3.13858016 17.04829197 4.40573825 19.8125 7.25 C20.58207031 8.01828125 21.35164063 8.7865625 22.14453125 9.578125 C24.11388502 12.14864992 24.65569365 13.81657739 25 17 C25.66 17 26.32 17 27 17 C28.76070375 23.05067242 28.62043498 29.92336881 27 36 C26.34 36 25.68 36 25 36 C24.95875 36.680625 24.9175 37.36125 24.875 38.0625 C23.18841073 43.72462113 18.9875933 47.64733896 14.1875 50.9375 C7.47166068 54.32382846 -0.7152129 54.51253426 -8 53 C-15.12284496 49.85999874 -19.77985095 45.00876959 -23.1953125 38.078125 C-24.84176869 33.82611191 -25.16106637 30.13551848 -25.1875 25.5625 C-25.20167969 24.45003906 -25.21585938 23.33757812 -25.23046875 22.19140625 C-25.00247902 19.03432812 -24.34441009 16.84292253 -23 14 C-22.34 14 -21.68 14 -21 14 C-20.360625 14.99 -19.72125 15.98 -19.0625 17 C-17.23425571 19.29758462 -16.31122684 19.93120249 -13.40234375 20.57421875 C-8.59083018 20.76201672 -5.88562199 20.65066105 -1.9375 17.75 C0.87781313 13.75407169 2.27037996 11.19291865 2.125 6.25 C2.09792969 5.05117187 2.09792969 5.05117187 2.0703125 3.828125 C2.04710937 3.22484375 2.02390625 2.6215625 2 2 C1.34 2 0.68 2 0 2 C0 1.34 0 0.68 0 0 Z " fill="#434443" transform="translate(216,106)"/>
<path d="M0 0 C1.80791016 -0.00386719 1.80791016 -0.00386719 3.65234375 -0.0078125 C6.59472592 0.10678199 9.20739223 0.44237461 12.0625 1.125 C12.0625 1.785 12.0625 2.445 12.0625 3.125 C13.3309375 3.4034375 13.3309375 3.4034375 14.625 3.6875 C20.67358831 6.21690965 25.19899727 11.23891105 28.0625 17.125 C30.56154534 24.6753072 30.33041961 35.38476821 27.0625 42.625 C26.42650127 43.8086643 25.77238433 44.98411447 25.0625 46.125 C24.4025 46.125 23.7425 46.125 23.0625 46.125 C22.815 46.74375 22.5675 47.3625 22.3125 48 C20.85621361 50.47568687 19.68437494 51.07625002 17.0625 52.125 C17.0625 52.785 17.0625 53.445 17.0625 54.125 C7.92645335 58.74458115 -0.96597289 59.39209396 -10.9375 57.125 C-10.9375 56.465 -10.9375 55.805 -10.9375 55.125 C-12.5875 54.795 -14.2375 54.465 -15.9375 54.125 C-15.9375 53.465 -15.9375 52.805 -15.9375 52.125 C-16.72125 51.898125 -17.505 51.67125 -18.3125 51.4375 C-20.9375 50.125 -20.9375 50.125 -22.25 47.5 C-22.476875 46.71625 -22.70375 45.9325 -22.9375 45.125 C-23.5975 45.125 -24.2575 45.125 -24.9375 45.125 C-29.54296572 36.71501912 -29.78950678 28.3850339 -27.9375 19.125 C-27.2775 19.125 -26.6175 19.125 -25.9375 19.125 C-25.6075 17.145 -25.2775 15.165 -24.9375 13.125 C-24.2775 13.125 -23.6175 13.125 -22.9375 13.125 C-22.89625 12.568125 -22.855 12.01125 -22.8125 11.4375 C-20.98101508 6.59714701 -15.37379343 3.45989128 -10.9375 1.125 C-7.30817473 -0.08201934 -3.80188473 -0.00811502 0 0 Z M-11.609375 16.43359375 C-15.66321926 20.99986214 -15.6025912 26.14571275 -15.359375 32.0234375 C-14.7586908 36.43957873 -13.73387781 38.64842218 -10.9375 42.125 C-7.19720273 44.85458011 -4.54425305 45.53525576 0.0625 45.5 C1.073125 45.50773437 2.08375 45.51546875 3.125 45.5234375 C6.48987357 45.06703178 8.3390942 44.12529461 11.0625 42.125 C14.94310544 36.95085941 16.46371433 32.93518507 16.421875 26.5546875 C15.82038331 22.48808064 13.79477966 19.16362616 11.0625 16.125 C10.4025 16.125 9.7425 16.125 9.0625 16.125 C9.0625 15.465 9.0625 14.805 9.0625 14.125 C1.39002394 11.89854035 -5.01893431 11.27518807 -11.609375 16.43359375 Z " fill="#49B74F" transform="translate(372.9375,112.875)"/>
<path d="M0 0 C1.94709554 1.7312219 3.40130283 3.39661496 4.796875 5.59765625 C4.796875 6.58765625 4.796875 7.57765625 4.796875 8.59765625 C5.456875 8.59765625 6.116875 8.59765625 6.796875 8.59765625 C8.86946467 17.29910709 9.67280797 25.96985733 6.796875 34.59765625 C6.136875 34.59765625 5.476875 34.59765625 4.796875 34.59765625 C4.64025391 35.48710937 4.64025391 35.48710937 4.48046875 36.39453125 C3.6963109 38.92175997 2.74632976 40.02067805 0.859375 41.84765625 C0.33472656 42.3684375 -0.18992187 42.88921875 -0.73046875 43.42578125 C-2.203125 44.59765625 -2.203125 44.59765625 -4.203125 44.59765625 C-4.203125 45.25765625 -4.203125 45.91765625 -4.203125 46.59765625 C-12.61984167 50.85351299 -21.04516175 52.42691038 -30.25390625 49.69140625 C-32.62994697 48.75040002 -34.92335325 47.75040765 -37.203125 46.59765625 C-37.203125 45.93765625 -37.203125 45.27765625 -37.203125 44.59765625 C-37.76 44.37078125 -38.316875 44.14390625 -38.890625 43.91015625 C-43.71297863 41.17314473 -46.92982514 37.54255584 -48.69921875 32.234375 C-50.39669841 23.352214 -50.28222296 13.75585217 -46.203125 5.59765625 C-45.543125 5.59765625 -44.883125 5.59765625 -44.203125 5.59765625 C-43.873125 4.27765625 -43.543125 2.95765625 -43.203125 1.59765625 C-42.543125 1.59765625 -41.883125 1.59765625 -41.203125 1.59765625 C-41.203125 0.93765625 -41.203125 0.27765625 -41.203125 -0.40234375 C-39.41015625 -1.875 -39.41015625 -1.875 -37.015625 -3.46484375 C-36.23832031 -3.99207031 -35.46101563 -4.51929687 -34.66015625 -5.0625 C-22.95991884 -11.44275665 -9.82287253 -7.3671544 0 0 Z M-31.515625 7.78515625 C-35.89825444 12.4924249 -36.82072885 17.86143591 -36.62109375 24.09765625 C-35.7478418 29.32084545 -33.12808717 33.18492978 -28.8984375 36.2890625 C-24.16039648 38.58941575 -19.34092604 38.36035276 -14.203125 37.59765625 C-11.43416049 36.21573311 -10.26191174 34.99957411 -8.203125 32.59765625 C-8.203125 31.93765625 -8.203125 31.27765625 -8.203125 30.59765625 C-7.543125 30.59765625 -6.883125 30.59765625 -6.203125 30.59765625 C-5.23707799 27.35449843 -5.06893476 24.41256959 -5.078125 21.03515625 C-5.07554687 20.08511719 -5.07296875 19.13507813 -5.0703125 18.15625 C-5.09541506 15.47641245 -5.09541506 15.47641245 -6.203125 12.59765625 C-6.863125 12.59765625 -7.523125 12.59765625 -8.203125 12.59765625 C-8.265 11.99953125 -8.326875 11.40140625 -8.390625 10.78515625 C-9.0560271 8.41556228 -9.0560271 8.41556228 -11.328125 6.91015625 C-18.36628071 3.69708516 -24.77947952 4.32605452 -31.515625 7.78515625 Z " fill="#4FBA55" transform="translate(503.203125,120.40234375)"/>
<path d="M0 0 C7.21676474 -0.60139706 11.77027827 1.47419198 17.4375 5.90625 C23.69890186 11.28463365 26.19177798 14.64837246 27 23 C27.07734375 23.76699219 27.1546875 24.53398437 27.234375 25.32421875 C27.69840272 33.53493145 24.82361261 39.47048424 19.75 45.8125 C18.8425 46.534375 17.935 47.25625 17 48 C16.42121094 48.4640625 15.84242188 48.928125 15.24609375 49.40625 C8.1556399 54.24982379 0.20995004 54.05080526 -8 53 C-14.20543221 50.88175472 -18.10736981 46.07258372 -22 41 C-22.8971875 39.948125 -22.8971875 39.948125 -23.8125 38.875 C-27.16407763 33.58303532 -26.48663427 26.00993321 -26 20 C-25.24640601 17.62968401 -24.38927796 16.08391694 -23 14 C-21.82780457 14.78345715 -20.66236332 15.57702836 -19.5 16.375 C-18.8503125 16.81585938 -18.200625 17.25671875 -17.53125 17.7109375 C-17.0259375 18.13632813 -16.520625 18.56171875 -16 19 C-16 19.66 -16 20.32 -16 21 C-12.37 21 -8.74 21 -5 21 C-5 20.34 -5 19.68 -5 19 C-4.030625 18.319375 -3.06125 17.63875 -2.0625 16.9375 C0.04930226 15.27290292 0.88954681 14.39526959 1.62109375 11.77734375 C1.96732847 8.50143063 2 5.29206456 2 2 C1.34 2 0.68 2 0 2 C0 1.34 0 0.68 0 0 Z " fill="#434343" transform="translate(135,106)"/>
<path d="M0 0 C0.76164699 2.7718956 1.15874176 5.38715284 1.375 8.25 C1.84540412 12.90006043 3.20117225 16.69845537 5 21 C5.495 16.545 5.495 16.545 6 12 C6.33 12 6.66 12 7 12 C7.07476562 13.03898437 7.14953125 14.07796875 7.2265625 15.1484375 C8.101581 25.1469342 9.77470027 32.36576377 16.796875 39.9375 C22.70385094 44.88287521 29.50300401 45.02271581 36.88671875 44.58203125 C43.44808545 43.87030502 48.28619989 41.06271727 52.640625 36.1484375 C54.18697101 34.12013579 54.18697101 34.12013579 56 31 C56.66 30.01 57.32 29.02 58 28 C58.495 28.99 58.495 28.99 59 30 C66.14127508 24.92175994 73.77029067 18.91883733 76 10 C76.14136972 7.30892642 76.09149578 4.69912552 76 2 C78 3 78 3 78.61010742 4.77294922 C80.46666328 15.37752188 80.67260732 28.60474413 75 38 C74.34 38 73.68 38 73 38 C72.773125 38.70125 72.54625 39.4025 72.3125 40.125 C68.65999421 48.12572696 62.02720739 52.75025525 54.171875 56.265625 C46.97554422 58.94070084 40.62034837 59.51092207 33 59 C32.29230469 58.99097656 31.58460938 58.98195312 30.85546875 58.97265625 C21.43570937 58.4930351 13.2630659 52.18513084 7.015625 45.578125 C3.16158638 40.64854072 -1 34.40661166 -1 28 C-1.66 28 -2.32 28 -3 28 C-3.31042285 18.19293733 -3.39925415 9.36818258 0 0 Z " fill="#E3E2E2" transform="translate(184,114)"/>
<path d="M0 0 C0.33 0 0.66 0 1 0 C1.09474609 0.90878906 1.09474609 0.90878906 1.19140625 1.8359375 C2.61733332 11.59228058 7.77062534 18.77999192 15.37890625 24.9140625 C17.06718962 26.1460803 17.06718962 26.1460803 19.5625 26.875 C22.99741002 28.46034309 24.37741947 31.05244336 26.51953125 34.09765625 C28.36658274 36.47104432 30.31125254 37.69196069 33 39 C33.99 39.66 34.98 40.32 36 41 C44.88761092 42.05999029 52.95401598 41.88801552 60.71875 36.98828125 C65.37140424 32.93314253 68.06865752 27.79402743 70 22 C70.06970052 19.60509014 70.08448003 17.20832309 70.0625 14.8125 C70.05347656 13.54019531 70.04445313 12.26789063 70.03515625 10.95703125 C70.02355469 9.98121094 70.01195312 9.00539063 70 8 C72 10 72 10 72.125 13.625 C72.08375 14.73875 72.0425 15.8525 72 17 C72.66 17 73.32 17 74 17 C74.185625 15.88625 74.185625 15.88625 74.375 14.75 C75 12 75 12 76 10.1875 C77.51269059 6.87848933 77.63883225 3.61167752 78 0 C78.33 0 78.66 0 79 0 C81.27356006 14.1219503 81.53853816 27.62408635 72.875 39.6875 C68.24670071 45.19974487 62.3258509 51.91404602 54.875 53 C53.92625 53 52.9775 53 52 53 C52 53.66 52 54.32 52 55 C47.83639654 56.16854757 43.79505199 56.14687633 39.5 56.125 C38.36111328 56.13080078 38.36111328 56.13080078 37.19921875 56.13671875 C33.62985544 56.13046768 30.43268398 55.96340936 27 55 C27 54.34 27 53.68 27 53 C26.01 52.95875 25.02 52.9175 24 52.875 C17.92951237 52.01306464 13.56047644 47.81352667 9.6875 43.3125 C9.130625 42.549375 8.57375 41.78625 8 41 C7.52304688 40.52949219 7.04609375 40.05898437 6.5546875 39.57421875 C-0.37115233 32.56137088 -1.9626324 24.0051507 -2.25 14.4375 C-2.14292913 9.5122401 -1.11835912 4.78298232 0 0 Z " fill="#E1E0E0" transform="translate(91,117)"/>
<path d="M0 0 C0 3.96 0 7.92 0 12 C5.94 12.33 11.88 12.66 18 13 C18 16.96 18 20.92 18 25 C12.06 25 6.12 25 0 25 C0 34.9 0 44.8 0 55 C5.5494235 55.28919259 5.5494235 55.28919259 11.09936523 55.56811523 C16.88888889 55.88888889 16.88888889 55.88888889 18 57 C18.14355117 61.00220653 18.04216403 64.99441683 18 69 C11.07 69 4.14 69 -3 69 C-3 68.34 -3 67.68 -3 67 C-4.11375 66.9071875 -4.11375 66.9071875 -5.25 66.8125 C-9.02139574 65.69822399 -9.97130305 64.35784322 -12 61 C-14.00128501 54.69580082 -14.29587926 48.45519652 -14.265625 41.890625 C-14.26753845 40.96078796 -14.2694519 40.03095093 -14.27142334 39.07293701 C-14.2727751 37.12332892 -14.26914978 35.17371152 -14.26074219 33.22412109 C-14.24997927 30.24426148 -14.26069685 27.26499799 -14.2734375 24.28515625 C-14.27211668 22.38281118 -14.26955589 20.48046647 -14.265625 18.578125 C-14.26967346 17.69159241 -14.27372192 16.80505981 -14.27789307 15.8916626 C-14.23529644 10.27367107 -13.84167399 6.21000879 -10.125 1.75 C-6.39506141 -1.32171413 -4.70456904 -1.17614226 0 0 Z " fill="#4EB954" transform="translate(325,101)"/>
<path d="M0 0 C4.62 0 9.24 0 14 0 C14 18.48 14 36.96 14 56 C7.20353982 56 7.20353982 56 4.625 53.6875 C2 51 2 51 2 48 C1.34 48 0.68 48 0 48 C0 32.16 0 16.32 0 0 Z " fill="#42B549" transform="translate(704,114)"/>
<path d="M0 0 C1.14448217 3.43344652 0.82995991 4.15978796 -0.375 7.4375 C-1.40288162 10.27618241 -2.31637156 13.0577168 -3 16 C-3.66 16 -4.32 16 -5 16 C-5 16.99 -5 17.98 -5 19 C-22.82 19 -40.64 19 -59 19 C-59 83.68 -59 148.36 -59 215 C-10.16 215 38.68 215 89 215 C89 215.33 89 215.66 89 216 C39.5 216 -10 216 -61 216 C-61 150.66 -61 85.32 -61 18 C-35.38467413 16.83566701 -35.38467413 16.83566701 -23.375 16.875 C-22.12460938 16.87113281 -20.87421875 16.86726563 -19.5859375 16.86328125 C-18.3896875 16.86457031 -17.1934375 16.86585937 -15.9609375 16.8671875 C-14.90696777 16.86831543 -13.85299805 16.86944336 -12.76708984 16.87060547 C-10.34151908 16.9840299 -8.31440225 17.30074915 -6 18 C-6.05800781 16.92105469 -6.05800781 16.92105469 -6.1171875 15.8203125 C-5.98981027 12.75476712 -5.30604739 10.69399633 -4.125 7.875 C-3.60292969 6.60269531 -3.60292969 6.60269531 -3.0703125 5.3046875 C-2 3 -2 3 0 0 Z " fill="#A8A8A8" transform="translate(130,30)"/>
<path d="M0 0 C0.94101563 0.00644531 1.88203125 0.01289063 2.8515625 0.01953125 C5.375 0.1875 5.375 0.1875 8.375 1.1875 C8.375 1.8475 8.375 2.5075 8.375 3.1875 C9.2103125 3.31125 9.2103125 3.31125 10.0625 3.4375 C13.07214206 4.41360013 14.99654752 6.13938814 17.375 8.1875 C16.931684 12.97019758 15.07186285 14.89739026 11.625 18.125 C7.93350771 21.66312083 4.54069082 25.17762497 1.375 29.1875 C-1.84324583 28.61688291 -3.3522553 27.80038582 -5.5 25.3515625 C-6.01046875 24.78179687 -6.5209375 24.21203125 -7.046875 23.625 C-7.56765625 23.026875 -8.0884375 22.42875 -8.625 21.8125 C-13.20677042 16.55097716 -13.20677042 16.55097716 -18.625 12.1875 C-18.0590344 8.74702488 -17.04138065 7.27675523 -14.375 5.0625 C-13.79234375 4.56492188 -13.2096875 4.06734375 -12.609375 3.5546875 C-8.49107403 0.71727542 -4.96267395 -0.07519203 0 0 Z " fill="#F4C368" transform="translate(176.625,165.8125)"/>
<path d="M0 0 C0 8.91 0 17.82 0 27 C-4.00667309 24.99666346 -5.58462948 23.45746921 -8.4375 20.125 C-11.40394511 16.66844657 -14.36706696 13.7551344 -18 11 C-17.27211228 6.64212677 -15.23016924 4.96580879 -11.90625 2.26171875 C-8.10379935 -0.25506723 -4.42177951 0 0 0 Z " fill="#F6F0AB" transform="translate(176,167)"/>
<path d="M0 0 C0 14.52 0 29.04 0 44 C1.32 44 2.64 44 4 44 C4 44.66 4 45.32 4 46 C2.33388095 46.042721 0.66617115 46.04063832 -1 46 C-2 45 -2 45 -2.11352539 41.03100586 C-2.1133662 39.25894393 -2.10766785 37.4868774 -2.09765625 35.71484375 C-2.0962413 34.78402481 -2.09482635 33.85320587 -2.09336853 32.8941803 C-2.08775172 29.90858809 -2.0751964 26.92306971 -2.0625 23.9375 C-2.05748716 21.91862087 -2.05292388 19.89974057 -2.04882812 17.88085938 C-2.03777683 12.92054428 -2.02050095 7.96028468 -2 3 C-6.41522109 4.26974972 -6.41522109 4.26974972 -10 7 C-10.33302936 9.99509062 -10.33302936 9.99509062 -10.31884766 13.56103516 C-10.33391609 14.57096779 -10.33391609 14.57096779 -10.34928894 15.6013031 C-10.38022182 17.83054741 -10.39718368 20.05967109 -10.4140625 22.2890625 C-10.43276607 23.83321172 -10.45233887 25.37735065 -10.4727478 26.92147827 C-10.5241609 30.98862645 -10.56373727 35.0558078 -10.60089111 39.12310791 C-10.64087343 43.2722602 -10.69199202 47.42127342 -10.7421875 51.5703125 C-10.83905537 59.71344681 -10.92342514 67.85664971 -11 76 C-13.36780375 72.44829437 -13.24818746 70.95054419 -13.24291992 66.74023438 C-13.24599655 65.44879517 -13.24907318 64.15735596 -13.25224304 62.82678223 C-13.24534487 61.41576968 -13.23807787 60.00475889 -13.23046875 58.59375 C-13.22927648 57.14790895 -13.22882389 55.70206711 -13.2290802 54.25622559 C-13.22751623 51.22659452 -13.21923342 48.19708177 -13.20581055 45.16748047 C-13.18882085 41.28355474 -13.18499629 37.39975902 -13.18575573 33.51580048 C-13.18548383 30.53040322 -13.17999934 27.5450344 -13.17275429 24.55964661 C-13.16957162 23.12750972 -13.16760115 21.6953696 -13.16686058 20.26322937 C-13.1646928 18.26206301 -13.15514954 16.26090874 -13.14526367 14.25976562 C-13.14145187 13.12075806 -13.13764008 11.98175049 -13.13371277 10.80822754 C-13 8 -13 8 -12 5 C-11.34 5 -10.68 5 -10 5 C-10 4.34 -10 3.68 -10 3 C-6.23806853 0.20542234 -4.9236197 0 0 0 Z " fill="#72C777" transform="translate(421,89)"/>
<path d="M0 0 C2.52224843 2.27002359 2.94705668 3.63696007 3.4375 7 C3 10 3 10 1.4375 12.375 C-1.85066094 14.56710729 -4.12575435 14.35872645 -8 14 C-8.66 13.67 -9.32 13.34 -10 13 C-10 12.34 -10 11.68 -10 11 C-10.66 11 -11.32 11 -12 11 C-12 8.03 -12 5.06 -12 2 C-7.60035931 -0.61883374 -4.9601108 -1.65337027 0 0 Z " fill="#40B447" transform="translate(716,97)"/>
<path d="M0 0 C0.99 0.33 1.98 0.66 3 1 C1.576875 1.99 1.576875 1.99 0.125 3 C-4.58687814 7.00232472 -4.7973376 11.78501915 -5.33203125 17.62890625 C-5.59358699 21.08492942 -5.81528966 24.53911158 -6 28 C-4.02 28.33 -2.04 28.66 0 29 C0 29.66 0 30.32 0 31 C-1.32 30.67 -2.64 30.34 -4 30 C-4 33.3 -4 36.6 -4 40 C-2.35 40.33 -0.7 40.66 1 41 C0.67 41.99 0.34 42.98 0 44 C-1.65 43.01 -3.3 42.02 -5 41 C-5.33 49.58 -5.66 58.16 -6 67 C-6.66 67 -7.32 67 -8 67 C-8 48.52 -8 30.04 -8 11 C-7.34 11 -6.68 11 -6 11 C-5.9071875 9.6696875 -5.9071875 9.6696875 -5.8125 8.3125 C-4.81828945 4.25918008 -3.09898876 2.70168251 0 0 Z " fill="#82CE87" transform="translate(535,126)"/>
<path d="M0 0 C0.99 0 1.98 0 3 0 C3.01030746 0.6072139 3.02061493 1.2144278 3.03123474 1.84004211 C3.13927232 8.15022613 3.25387267 14.46026655 3.37231445 20.77026367 C3.41567208 23.12635295 3.45734654 25.48247383 3.49731445 27.83862305 C3.55499676 31.22193938 3.61869731 34.60509657 3.68359375 37.98828125 C3.70030624 39.04461258 3.71701874 40.10094391 3.73423767 41.18928528 C3.75418289 42.17007553 3.77412811 43.15086578 3.79467773 44.16137695 C3.81022202 45.02519485 3.8257663 45.88901276 3.84178162 46.77900696 C3.92009739 49.17365425 3.92009739 49.17365425 5 52 C7.01508358 52.73323796 7.01508358 52.73323796 9 53 C8.67 53.99 8.34 54.98 8 56 C3.3125 52.38671875 3.3125 52.38671875 2 51 C2 50.01 2 49.02 2 48 C1.34 48 0.68 48 0 48 C0 32.16 0 16.32 0 0 Z " fill="#81CD85" transform="translate(704,114)"/>
<path d="M0 0 C0.66 0.33 1.32 0.66 2 1 C1.93276514 7.8322163 1.84286699 14.66387091 1.73754883 21.49560547 C1.70438847 23.81747755 1.67632913 26.13942851 1.65356445 28.46142578 C1.61985528 31.80795768 1.56752991 35.15377244 1.51171875 38.5 C1.50532883 39.5305249 1.4989389 40.5610498 1.49235535 41.62280273 C1.32828137 49.74945242 0.10940944 57.07027907 -6 63 C-8.75 63.8125 -8.75 63.8125 -11 64 C-10 61 -10 61 -7.625 59.6875 C-4.25223774 57.51929569 -3.50410576 55.69586471 -2 52 C-1.59140658 48.62207048 -1.59140658 48.62207048 -1.70703125 45.0703125 C-1.7215332 43.13671875 -1.7215332 43.13671875 -1.73632812 41.1640625 C-1.76138812 39.81770214 -1.78678288 38.47134797 -1.8125 37.125 C-1.82756496 35.75522295 -1.84125018 34.38542998 -1.85351562 33.015625 C-1.88878621 29.67667642 -1.93808104 26.33854325 -2 23 C-3.65 22.67 -5.3 22.34 -7 22 C-6.67 21.01 -6.34 20.02 -6 19 C-4.68 19.66 -3.36 20.32 -2 21 C-1.90912109 19.10314453 -1.90912109 19.10314453 -1.81640625 17.16796875 C-1.73199096 15.50780129 -1.64734345 13.84764563 -1.5625 12.1875 C-1.52318359 11.35412109 -1.48386719 10.52074219 -1.44335938 9.66210938 C-1.40146484 8.85966797 -1.35957031 8.05722656 -1.31640625 7.23046875 C-1.26141968 6.12288208 -1.26141968 6.12288208 -1.20532227 4.99291992 C-1 3 -1 3 0 0 Z " fill="#A2DAA6" transform="translate(681,95)"/>
<path d="M0 0 C0.33 0 0.66 0 1 0 C1 3.96 1 7.92 1 12 C-4.94 12 -10.88 12 -17 12 C-17 21.9 -17 31.8 -17 42 C-11.4505765 42.28919259 -11.4505765 42.28919259 -5.90063477 42.56811523 C-0.11111111 42.88888889 -0.11111111 42.88888889 1 44 C1.07244053 46.01964199 1.08377188 48.04167124 1.0625 50.0625 C1.05347656 51.16722656 1.04445313 52.27195313 1.03515625 53.41015625 C1.02355469 54.26480469 1.01195312 55.11945313 1 56 C0.34 56 -0.32 56 -1 56 C-1 52.37 -1 48.74 -1 45 C-2.05960937 45.01160156 -3.11921875 45.02320313 -4.2109375 45.03515625 C-5.59895658 45.04453476 -6.98697755 45.05363489 -8.375 45.0625 C-9.07367188 45.07087891 -9.77234375 45.07925781 -10.4921875 45.08789062 C-15.7734375 45.11328125 -15.7734375 45.11328125 -18 44 C-19.15927528 40.52217417 -19.11313066 37.81196743 -19.09765625 34.14453125 C-19.0962413 33.48289474 -19.09482635 32.82125824 -19.09336853 32.13957214 C-19.08777996 30.03050172 -19.07522965 27.92153823 -19.0625 25.8125 C-19.05748352 24.38086091 -19.05292087 22.94922015 -19.04882812 21.51757812 C-19.038666 18.01164461 -19.01908861 14.50594173 -19 11 C-12.73 11 -6.46 11 0 11 C0 7.37 0 3.74 0 0 Z " fill="#BAE3BC" transform="translate(342,114)"/>
<path d="M0 0 C0 18.15 0 36.3 0 55 C-0.66 55 -1.32 55 -2 55 C-2 37.84 -2 20.68 -2 3 C-4.64 3.99 -7.28 4.98 -10 6 C-10 5.01 -10 4.02 -10 3 C-6.27034861 0.96564469 -4.33094958 0 0 0 Z " fill="#82CD86" transform="translate(693,89)"/>
<path d="M0 0 C1.1653125 0.01417969 2.330625 0.02835938 3.53125 0.04296875 C5.27921875 0.05263672 5.27921875 0.05263672 7.0625 0.0625 C10.03125 0.23046875 10.03125 0.23046875 12.03125 1.23046875 C11.70125 2.22046875 11.37125 3.21046875 11.03125 4.23046875 C11.03125 3.57046875 11.03125 2.91046875 11.03125 2.23046875 C6.74125 2.23046875 2.45125 2.23046875 -1.96875 2.23046875 C-1.96875 10.15046875 -1.96875 18.07046875 -1.96875 26.23046875 C-7.96875 26.23046875 -7.96875 26.23046875 -10.34375 24.23046875 C-10.88 23.57046875 -11.41625 22.91046875 -11.96875 22.23046875 C-9.98875 22.56046875 -8.00875 22.89046875 -5.96875 23.23046875 C-5.94893066 22.60479004 -5.92911133 21.97911133 -5.90869141 21.33447266 C-5.81360774 18.50770356 -5.70386254 15.6816906 -5.59375 12.85546875 C-5.54734375 11.37820312 -5.54734375 11.37820312 -5.5 9.87109375 C-5.44199219 8.45957031 -5.44199219 8.45957031 -5.3828125 7.01953125 C-5.3513916 6.15021973 -5.3199707 5.2809082 -5.28759766 4.38525391 C-4.75552875 0.78951104 -3.50798715 0.27233058 0 0 Z " fill="#6AC570" transform="translate(422.96875,143.76953125)"/>
<path d="M0 0 C1.14448217 3.43344652 0.82995991 4.15978796 -0.375 7.4375 C-1.40288162 10.27618241 -2.31637156 13.0577168 -3 16 C-3.66 16 -4.32 16 -5 16 C-5 16.99 -5 17.98 -5 19 C-22.82 19 -40.64 19 -59 19 C-59 18.67 -59 18.34 -59 18 C-47.16444752 17.22841567 -35.36157103 16.89274467 -23.5 16.875 C-22.23003174 16.87048828 -20.96006348 16.86597656 -19.65161133 16.86132812 C-18.45689209 16.86326172 -17.26217285 16.86519531 -16.03125 16.8671875 C-14.96455078 16.86831543 -13.89785156 16.86944336 -12.79882812 16.87060547 C-10.35964627 16.98337295 -8.32636531 17.29523169 -6 18 C-6.05800781 16.92105469 -6.05800781 16.92105469 -6.1171875 15.8203125 C-5.98981027 12.75476712 -5.30604739 10.69399633 -4.125 7.875 C-3.60292969 6.60269531 -3.60292969 6.60269531 -3.0703125 5.3046875 C-2 3 -2 3 0 0 Z " fill="#B4B4B4" transform="translate(130,30)"/>
<path d="M0 0 C3.45152861 0.25566879 4.24488569 1.26197074 6.6875 3.875 C9.67877058 7.91725753 10.12466432 10.43575819 10.09765625 15.32421875 C10.09443359 16.35224609 10.09121094 17.38027344 10.08789062 18.43945312 C10.07951172 19.51130859 10.07113281 20.58316406 10.0625 21.6875 C10.05798828 22.77095703 10.05347656 23.85441406 10.04882812 24.97070312 C10.03703743 27.64719085 10.02058063 30.32356777 10 33 C5.52646877 33.147075 3.36175165 33.10315537 0 30 C0.33 29.34 0.66 28.68 1 28 C3.475 28.99 3.475 28.99 6 30 C6 21.75 6 13.5 6 5 C4.68 4.34 3.36 3.68 2 3 C1.34 2.01 0.68 1.02 0 0 Z " fill="#6EC573" transform="translate(440,137)"/>
<path d="M0 0 C1.65 0 3.3 0 5 0 C5 13.86 5 27.72 5 42 C6.32 42 7.64 42 9 42 C9 42.66 9 43.32 9 44 C7.33388095 44.042721 5.66617115 44.04063832 4 44 C3 43 3 43 2.88647461 39.03100586 C2.8866338 37.25894393 2.89233215 35.4868774 2.90234375 33.71484375 C2.90446617 32.31861534 2.90446617 32.31861534 2.90663147 30.8941803 C2.91224828 27.90858809 2.9248036 24.92306971 2.9375 21.9375 C2.94251284 19.91862087 2.94707612 17.89974057 2.95117188 15.88085938 C2.96222317 10.92054428 2.97949905 5.96028468 3 1 C2.01 0.67 1.02 0.34 0 0 Z " fill="#5EC064" transform="translate(416,91)"/>
<path d="M0 0 C0 0.99 0 1.98 0 3 C-0.763125 3.7425 -1.52625 4.485 -2.3125 5.25 C-7.14628228 10.19619583 -8.35813735 14.96318429 -8.3125 21.671875 C-8.291875 22.44015625 -8.27125 23.2084375 -8.25 24 C-8.24484375 24.76828125 -8.2396875 25.5365625 -8.234375 26.328125 C-8.17121868 30.97011444 -7.75514464 35.42041313 -7 40 C-9.56654176 38.71672912 -9.67462406 37.85143257 -10.625 35.1875 C-13.30481412 26.52963898 -12.89043787 18.36402547 -9.140625 10.125 C-6.80457445 5.77290583 -4.0720887 2.76320305 0 0 Z " fill="#93D497" transform="translate(648,117)"/>
<path d="M0 0 C1.875 0.625 1.875 0.625 4 2 C7.09987697 8.57349796 6.42039578 16.12280632 6.56640625 23.234375 C6.7129288 30.82380522 6.7129288 30.82380522 9 38 C11.03243548 38.96877057 11.03243548 38.96877057 13 39 C12.67 39.99 12.34 40.98 12 42 C8.83282717 40.41641358 7.26731682 39.54736301 5.6875 36.3125 C5.460625 35.549375 5.23375 34.78625 5 34 C4.34 34 3.68 34 3 34 C3 31.03 3 28.06 3 25 C2.01 24.67 1.02 24.34 0 24 C1.32 23.67 2.64 23.34 4 23 C3.91275184 20.10275937 3.80584073 17.20849865 3.6875 14.3125 C3.65366211 13.08756836 3.65366211 13.08756836 3.61914062 11.83789062 C3.4078204 7.09279093 2.97250382 3.91286695 0 0 Z " fill="#95D499" transform="translate(767,128)"/>
<path d="M0 0 C0 4.28535967 -2.2516278 5.84942699 -5 9 C-5.33 9.66 -5.66 10.32 -6 11 C-6.66 11 -7.32 11 -8 11 C-9.90469791 20.99966401 -9.70491341 31.19468889 -7 41 C-12.11497417 36.35002349 -12.51068533 31.64286798 -12.97265625 24.97265625 C-13.00637592 21.30684695 -12.29923813 18.41904771 -11 15 C-10.62875 13.865625 -10.2575 12.73125 -9.875 11.5625 C-9.58625 10.716875 -9.2975 9.87125 -9 9 C-8.34 9 -7.68 9 -7 9 C-6.773125 8.443125 -6.54625 7.88625 -6.3125 7.3125 C-4.64103234 4.36753316 -2.44723648 2.31843456 0 0 Z " fill="#99D79D" transform="translate(588,117)"/>
<path d="M0 0 C0 0.66 0 1.32 0 2 C-1.32 1.67 -2.64 1.34 -4 1 C-4 4.3 -4 7.6 -4 11 C-2.35 11.33 -0.7 11.66 1 12 C0.67 12.99 0.34 13.98 0 15 C-1.65 14.01 -3.3 13.02 -5 12 C-5.33 20.58 -5.66 29.16 -6 38 C-6.33 38 -6.66 38 -7 38 C-7 25.46 -7 12.92 -7 0 C-4.3333581 -1.33332095 -2.83319697 -0.67102033 0 0 Z " fill="#BFE5C1" transform="translate(535,155)"/>
<path d="M0 0 C5.42465753 0.48219178 5.42465753 0.48219178 7.875 2.6875 C9.35810604 5.73610685 9.48891657 7.64742924 9 11 C7.4375 13.375 7.4375 13.375 5 15 C-0.97058824 15.51470588 -0.97058824 15.51470588 -4 14 C-4 13.34 -4 12.68 -4 12 C-4.66 12 -5.32 12 -6 12 C-6 9.03 -6 6.06 -6 3 C-4.68 2.34 -3.36 1.68 -2 1 C-2.33 1.99 -2.66 2.98 -3 4 C-3.16677282 7.58343976 -3.16677282 7.58343976 -3 11 C-1.82281015 12.40432936 -1.82281015 12.40432936 1.5 12.125 C4.82281015 12.40432936 4.82281015 12.40432936 6 11 C6.07148199 9.64756083 6.08399454 8.29165633 6.0625 6.9375 C6.041875 5.638125 6.02125 4.33875 6 3 C3.03 2.505 3.03 2.505 0 2 C0 1.34 0 0.68 0 0 Z " fill="#98D69C" transform="translate(710,96)"/>
<path d="M0 0 C0.66 0.33 1.32 0.66 2 1 C1.67515625 1.9796875 1.3503125 2.959375 1.015625 3.96875 C-0.18313875 8.17924881 -0.29674057 12.14533701 -0.25 16.5 C-0.25773437 17.22058594 -0.26546875 17.94117188 -0.2734375 18.68359375 C-0.25609478 23.47885624 0.49059314 27.44782059 2 32 C1.34 32 0.68 32 0 32 C-4.60546572 23.59001912 -4.85200678 15.2600339 -3 6 C-2.34 6 -1.68 6 -1 6 C-0.67 4.02 -0.34 2.04 0 0 Z " fill="#91D495" transform="translate(348,126)"/>
<path d="M0 0 C0.33 0 0.66 0 1 0 C1 16.17 1 32.34 1 49 C1.66 49 2.32 49 3 49 C3 49.99 3 50.98 3 52 C3.66 52 4.32 52 5 52 C5 52.66 5 53.32 5 54 C5.66 54 6.32 54 7 54 C7 54.66 7 55.32 7 56 C4.10762502 54.70341811 1.98522569 53.49438021 0 51 C-0.36076355 48.70307922 -0.36076355 48.70307922 -0.34057617 45.9777832 C-0.34034958 44.95695145 -0.34012299 43.93611969 -0.33988953 42.88435364 C-0.32440567 41.78427475 -0.30892181 40.68419586 -0.29296875 39.55078125 C-0.28872391 38.4230278 -0.28447906 37.29527435 -0.28010559 36.13334656 C-0.26329311 32.52615633 -0.22563528 28.91952178 -0.1875 25.3125 C-0.17245653 22.86914868 -0.15876754 20.42578863 -0.14648438 17.98242188 C-0.11338116 11.98809118 -0.06315593 5.99408529 0 0 Z " fill="#7ECC82" transform="translate(517,137)"/>
<path d="M0 0 C0.96541545 3.18554592 1.05239684 5.88752707 0.87890625 9.203125 C0.83056641 10.1828125 0.78222656 11.1625 0.73242188 12.171875 C0.67634766 13.18765625 0.62027344 14.2034375 0.5625 15.25 C0.51029297 16.28125 0.45808594 17.3125 0.40429688 18.375 C0.27484366 20.91699039 0.13988672 23.45856593 0 26 C-0.66 26 -1.32 26 -2 26 C-2.33 26.66 -2.66 27.32 -3 28 C-3.31042285 18.19293733 -3.39925415 9.36818258 0 0 Z " fill="#D0D0CF" transform="translate(184,114)"/>
<path d="M0 0 C0 0.66 0 1.32 0 2 C-7.76199333 5.92480024 -14.37603795 6.48661855 -23 6 C-23.33 5.01 -23.66 4.02 -24 3 C-22.91460937 2.95101562 -21.82921875 2.90203125 -20.7109375 2.8515625 C-19.26560216 2.77648014 -17.82029081 2.70093472 -16.375 2.625 C-15.66214844 2.5940625 -14.94929688 2.563125 -14.21484375 2.53125 C-9.33406064 2.26258304 -4.68975657 0 0 0 Z " fill="#7DCC82" transform="translate(390,165)"/>
<path d="M0 0 C0.66 0.33 1.32 0.66 2 1 C2.33 9.58 2.66 18.16 3 27 C1.68 27.33 0.36 27.66 -1 28 C-0.67 18.76 -0.34 9.52 0 0 Z " fill="#FBD37A" transform="translate(176,167)"/>
<path d="M0 0 C0.74572266 0.04382813 1.49144531 0.08765625 2.25976562 0.1328125 C7.8081496 0.4956496 7.8081496 0.4956496 8.9375 1.625 C9.00994053 3.64464199 9.02127188 5.66667124 9 7.6875 C8.99097656 8.79222656 8.98195313 9.89695313 8.97265625 11.03515625 C8.96105469 11.88980469 8.94945312 12.74445313 8.9375 13.625 C8.2775 13.625 7.6175 13.625 6.9375 13.625 C6.9375 9.995 6.9375 6.365 6.9375 2.625 C5.87789063 2.64820313 4.81828125 2.67140625 3.7265625 2.6953125 C2.3385487 2.71406944 0.9505273 2.73226972 -0.4375 2.75 C-1.48550781 2.77513672 -1.48550781 2.77513672 -2.5546875 2.80078125 C-4.39147486 2.81844267 -6.22851963 2.72803261 -8.0625 2.625 C-8.7225 1.965 -9.3825 1.305 -10.0625 0.625 C-6.86352464 -0.97448768 -3.48131594 -0.24196809 0 0 Z " fill="#A3DBA6" transform="translate(334.0625,156.375)"/>
<path d="M0 0 C8.66711545 -0.45439246 8.66711545 -0.45439246 12.75 0.9375 C16.75466212 4.60844028 20.83185782 9.20805773 21.16796875 14.7890625 C21.11253906 15.51867187 21.05710937 16.24828125 21 17 C19.53677611 14.80516417 18.25569634 12.68038 17 10.375 C15.3948274 6.97179804 15.3948274 6.97179804 13 6 C13 5.34 13 4.68 13 4 C8.71 3.67 4.42 3.34 0 3 C0 2.01 0 1.02 0 0 Z " fill="#7CCB81" transform="translate(369,123)"/>
<path d="M0 0 C2.4932534 0.99730136 3.77467439 1.65074531 5.25 3.9375 C6 6 6 6 6 9 C2.7 9 -0.6 9 -4 9 C-2.80100302 5.9168649 -1.52299523 2.93720508 0 0 Z " fill="#4E864B" transform="translate(175,152)"/>
<path d="M0 0 C6.27 0.33 12.54 0.66 19 1 C18.67 1.99 18.34 2.98 18 4 C15.9377952 4.054348 13.87517184 4.09294961 11.8125 4.125 C10.66394531 4.14820313 9.51539063 4.17140625 8.33203125 4.1953125 C5.08259628 4.00484152 2.91339479 3.39360127 0 2 C0 1.34 0 0.68 0 0 Z " fill="#78CA7D" transform="translate(471,167)"/>
<path d="M0 0 C1 3 1 3 0.0859375 4.88671875 C-0.45160156 5.93279297 -0.45160156 5.93279297 -1 7 C-1.97774547 13.78737263 -0.99936885 18.4714607 3 24 C3.66 24.33 4.32 24.66 5 25 C5 25.66 5 26.32 5 27 C0.72349343 25.47267623 -0.94669176 22.96500901 -3 19 C-4.04746829 13.96409476 -4.4963974 8.98799134 -3 4 C-2.34 4 -1.68 4 -1 4 C-0.67 2.68 -0.34 1.36 0 0 Z " fill="#80CD84" transform="translate(469,130)"/>
<path d="M0 0 C0.66 0.33 1.32 0.66 2 1 C1.34 3.31 0.68 5.62 0 8 C-0.66 8 -1.32 8 -2 8 C-2 13.94 -2 19.88 -2 26 C-2.66 25.67 -3.32 25.34 -4 25 C-4.44682233 15.69120137 -4.44371561 8.43115686 0 0 Z " fill="#86CF8A" transform="translate(732,124)"/>
<path d="M0 0 C0 0.99 0 1.98 0 3 C-6.6 3.66 -13.2 4.32 -20 5 C-20 4.34 -20 3.68 -20 3 C-17.79344925 2.49219106 -15.58466395 1.99408635 -13.375 1.5 C-11.53035156 1.08234375 -11.53035156 1.08234375 -9.6484375 0.65625 C-6.32847772 0.05908379 -3.36091549 -0.12409534 0 0 Z " fill="#6C6C6C" transform="translate(212,50)"/>
<path d="M0 0 C7.51827663 -0.69328371 12.02597761 0.32758025 18 5 C17.67 5.66 17.34 6.32 17 7 C16.236875 6.525625 15.47375 6.05125 14.6875 5.5625 C10.10888388 3.2235443 5.0471078 3.26043795 0 3 C0 2.01 0 1.02 0 0 Z " fill="#77C97C" transform="translate(660,123)"/>
<path d="M0 0 C0.33 0 0.66 0 1 0 C2.32719886 6.96779403 2.08825381 13.92988911 2 21 C1.34 21 0.68 21 0 21 C-0.33 18.36 -0.66 15.72 -1 13 C-1.99 13.66 -2.98 14.32 -4 15 C-3.71125 14.38125 -3.4225 13.7625 -3.125 13.125 C-1.58288195 8.84133876 -0.81601453 4.47071788 0 0 Z " fill="#EAE9E9" transform="translate(169,117)"/>
<path d="M0 0 C1.21236328 0.01353516 1.21236328 0.01353516 2.44921875 0.02734375 C3.37154297 0.04474609 3.37154297 0.04474609 4.3125 0.0625 C4.3125 0.7225 4.3125 1.3825 4.3125 2.0625 C5.9625 2.3925 7.6125 2.7225 9.3125 3.0625 C9.3125 3.7225 9.3125 4.3825 9.3125 5.0625 C9.9725 5.0625 10.6325 5.0625 11.3125 5.0625 C10.9825 5.7225 10.6525 6.3825 10.3125 7.0625 C9.673125 6.588125 9.03375 6.11375 8.375 5.625 C3.03214341 2.89905276 -2.89287758 2.38019027 -8.6875 4.0625 C-8.3575 3.0725 -8.0275 2.0825 -7.6875 1.0625 C-4.80538698 0.10179566 -2.98899956 -0.04331883 0 0 Z " fill="#7CCB81" transform="translate(605.6875,122.9375)"/>
<path d="M0 0 C0.66 0 1.32 0 2 0 C4.14336161 3.4766338 4.21277626 6.21229195 4.125 10.25 C4.10695313 11.32765625 4.08890625 12.4053125 4.0703125 13.515625 C4.04710937 14.33546875 4.02390625 15.1553125 4 16 C3.34 16 2.68 16 2 16 C1.67 17.32 1.34 18.64 1 20 C-0.35276714 17.29446571 0.4092783 15.95360849 1 13 C1.16302889 8.51670566 0.8588481 4.40159653 0 0 Z " fill="#86D08B" transform="translate(558,132)"/>
<path d="M0 0 C2.20296047 1.88825183 3.14248065 3.31086688 4.375 6 C6.20768851 9.38342494 7.70889752 10.18123284 11 12 C11.33 12.99 11.66 13.98 12 15 C6.49411765 14.51058824 6.49411765 14.51058824 4.125 12.0625 C3 10 3 10 3 8 C2.34 8 1.68 8 1 8 C0.67 5.36 0.34 2.72 0 0 Z " fill="#80CD85" transform="translate(648,144)"/>
<path d="M0 0 C4.12645535 3.48204999 4.32575913 7.86956945 5 13 C5.12964365 15.36704203 5.10313298 17.62794153 5 20 C4.34 20 3.68 20 3 20 C2.92652344 19.00419922 2.92652344 19.00419922 2.8515625 17.98828125 C2.45027091 13.24888924 1.88405386 9.39612567 0 5 C-0.125 2.1875 -0.125 2.1875 0 0 Z " fill="#8FD394" transform="translate(629,126)"/>
<path d="M0 0 C3.3 0 6.6 0 10 0 C10 0.66 10 1.32 10 2 C11.65 2.33 13.3 2.66 15 3 C15.33 3.99 15.66 4.98 16 6 C15.29488281 5.68289062 14.58976562 5.36578125 13.86328125 5.0390625 C10.87494121 3.95461714 8.34930342 3.6035641 5.1875 3.375 C4.21167969 3.30023438 3.23585938 3.22546875 2.23046875 3.1484375 C1.49441406 3.09945312 0.75835937 3.05046875 0 3 C0 2.01 0 1.02 0 0 Z " fill="#7DCC82" transform="translate(478,123)"/>
<path d="M0 0 C0.66 0 1.32 0 2 0 C1.6338021 2.77089743 1.13728913 3.86554742 -0.890625 5.8515625 C-1.66921875 6.43679687 -2.4478125 7.02203125 -3.25 7.625 C-4.01828125 8.21539062 -4.7865625 8.80578125 -5.578125 9.4140625 C-7.98815874 10.99224589 -10.29451513 12.03101429 -13 13 C-13 12.01 -13 11.02 -13 10 C-12.113125 9.608125 -11.22625 9.21625 -10.3125 8.8125 C-6.85839048 6.92251554 -4.65677677 4.87817484 -2 2 C-1.34 1.34 -0.68 0.68 0 0 Z " fill="#70C775" transform="translate(567,157)"/>
<path d="M0 0 C0.33 0.66 0.66 1.32 1 2 C0.34 2 -0.32 2 -1 2 C-1 2.66 -1 3.32 -1 4 C-1.99 4 -2.98 4 -4 4 C-4 4.66 -4 5.32 -4 6 C-6.64 6 -9.28 6 -12 6 C-12 5.34 -12 4.68 -12 4 C-12.99 4 -13.98 4 -15 4 C-14.67 3.01 -14.34 2.02 -14 1 C-13.67 1.33 -13.34 1.66 -13 2 C-11.37860563 2.12494616 -9.75115878 2.17571624 -8.125 2.1875 C-6.79855469 2.20876953 -6.79855469 2.20876953 -5.4453125 2.23046875 C-2.74233274 2.17068424 -2.74233274 2.17068424 0 0 Z " fill="#7FCD84" transform="translate(764,155)"/>
<path d="M0 0 C0.33 0 0.66 0 1 0 C1 7.92 1 15.84 1 24 C-4.625 22.875 -4.625 22.875 -7 20 C-5.02 20.33 -3.04 20.66 -1 21 C-0.67 14.07 -0.34 7.14 0 0 Z " fill="#61C066" transform="translate(418,146)"/>
<path d="M0 0 C0 3.33333333 0 6.66666667 0 10 C1.98 10.66 3.96 11.32 6 12 C6 12.66 6 13.32 6 14 C3.69 13.67 1.38 13.34 -1 13 C-1 12.34 -1 11.68 -1 11 C-1.66 11 -2.32 11 -3 11 C-3.08096803 9.54257537 -3.13917774 8.08387193 -3.1875 6.625 C-3.22230469 5.81289062 -3.25710938 5.00078125 -3.29296875 4.1640625 C-3.19628906 3.44992188 -3.09960938 2.73578125 -3 2 C-2.01 1.34 -1.02 0.68 0 0 Z " fill="#86CF8A" transform="translate(707,97)"/>
<path d="M0 0 C1.44185382 4.32556145 -0.10431382 6.99799585 -2 11 C-4.08302843 14.2634112 -5.01912753 15.71019677 -8.75 16.8125 C-9.4925 16.874375 -10.235 16.93625 -11 17 C-10 14 -10 14 -7.61328125 12.66796875 C-4.36935634 10.59748155 -3.63767812 8.83436114 -2.1875 5.3125 C-1.76855469 4.31863281 -1.34960938 3.32476562 -0.91796875 2.30078125 C-0.61503906 1.54152344 -0.31210937 0.78226563 0 0 Z " fill="#8DD292" transform="translate(681,142)"/>
<path d="M0 0 C0.98120464 3.05263664 0.98120464 4.94736336 0 8 C-0.66 8 -1.32 8 -2 8 C-2.268125 8.598125 -2.53625 9.19625 -2.8125 9.8125 C-4.00987475 12.01819033 -5.04478984 13.43583187 -7 15 C-7.99 15 -8.98 15 -10 15 C-9.67 14.01 -9.34 13.02 -9 12 C-8.360625 11.855625 -7.72125 11.71125 -7.0625 11.5625 C-4.88280158 11.21307467 -4.88280158 11.21307467 -3.9375 9.375 C-3.4734375 8.199375 -3.4734375 8.199375 -3 7 C-2.46044342 5.74908774 -1.91865292 4.49913741 -1.375 3.25 C-0.92125 2.1775 -0.4675 1.105 0 0 Z " fill="#7CCB81" transform="translate(389,144)"/>
<path d="M0 0 C4.75475795 2.30945386 7.5158762 5.41838646 10 10 C10.8125 13.4375 10.8125 13.4375 11 16 C10.34 16 9.68 16 9 16 C9 15.01 9 14.02 9 13 C8.34 13 7.68 13 7 13 C6.773125 11.9275 6.54625 10.855 6.3125 9.75 C4.85547133 5.58706094 3.50569049 4.49088535 0 2 C0 1.34 0 0.68 0 0 Z " fill="#90D394" transform="translate(773,117)"/>
<path d="M0 0 C0.66 0 1.32 0 2 0 C2.45375 0.763125 2.9075 1.52625 3.375 2.3125 C6.03632084 6.71391523 9.24746575 8.28380707 14 10 C14 10.66 14 11.32 14 12 C12.68 12 11.36 12 10 12 C10 11.34 10 10.68 10 10 C9.2575 9.938125 8.515 9.87625 7.75 9.8125 C4.11077188 8.73727351 3.04368887 7.1385222 1 4 C0.25 1.6875 0.25 1.6875 0 0 Z " fill="#94D597" transform="translate(312,158)"/>
<path d="M0 0 C0.33 0 0.66 0 1 0 C1 5.94 1 11.88 1 18 C-4 17 -4 17 -7 15 C-6.67 14.34 -6.34 13.68 -6 13 C-3.525 13.99 -3.525 13.99 -1 15 C-0.67 10.05 -0.34 5.1 0 0 Z " fill="#65C36B" transform="translate(447,152)"/>
<path d="M0 0 C0.99 0.33 1.98 0.66 3 1 C2.01 1.33 1.02 1.66 0 2 C0 2.66 0 3.32 0 4 C-0.598125 4.556875 -1.19625 5.11375 -1.8125 5.6875 C-4.57705642 8.61003107 -5.56174818 11.26054527 -7 15 C-7.33 15 -7.66 15 -8 15 C-7.63871659 9.09903768 -5.99137646 5.40170489 -2 1 C-1.34 0.67 -0.68 0.34 0 0 Z " fill="#98D69C" transform="translate(656,125)"/>
<path d="M0 0 C0.33 0.66 0.66 1.32 1 2 C-3.51350747 5.52273754 -6.28341664 6.45732667 -12 6 C-12 5.01 -12 4.02 -12 3 C-11.38511719 2.95101562 -10.77023437 2.90203125 -10.13671875 2.8515625 C-9.32847656 2.77679688 -8.52023437 2.70203125 -7.6875 2.625 C-6.88699219 2.55539063 -6.08648438 2.48578125 -5.26171875 2.4140625 C-2.72775559 2.10435574 -2.72775559 2.10435574 0 0 Z " fill="#86CF8A" transform="translate(613,155)"/>
<path d="M0 0 C2.97 0 5.94 0 9 0 C9 0.66 9 1.32 9 2 C9.99 2 10.98 2 12 2 C11.67 2.66 11.34 3.32 11 4 C7.37 3.67 3.74 3.34 0 3 C0 2.01 0 1.02 0 0 Z " fill="#81CD85" transform="translate(540,123)"/>
<path d="M0 0 C5.95507399 0.3916035 10.62819824 1.37124595 16 4 C12.23331402 5.3805087 9.55210827 4.59568159 5.75 3.5625 C4.13351563 3.13130859 4.13351563 3.13130859 2.484375 2.69140625 C1.25460938 2.34916016 1.25460938 2.34916016 0 2 C0 1.34 0 0.68 0 0 Z " fill="#7F7F7F" transform="translate(147,50)"/>
<path d="M0 0 C1.14448217 3.43344652 0.82995991 4.15978796 -0.375 7.4375 C-1.58516549 10.77696469 -1.58516549 10.77696469 -2.4140625 14.22265625 C-2.60742188 14.80917969 -2.80078125 15.39570312 -3 16 C-3.99 16.33 -4.98 16.66 -6 17 C-5.03578548 11.02187 -3.3667134 5.0500701 0 0 Z " fill="#999999" transform="translate(130,30)"/>
<path d="M0 0 C2.97 0 5.94 0 9 0 C9 0.99 9 1.98 9 3 C5.7 3 2.4 3 -1 3 C-0.67 2.01 -0.34 1.02 0 0 Z " fill="#7BCB80" transform="translate(753,123)"/>
<path d="M0 0 C0.99 0 1.98 0 3 0 C3 0.66 3 1.32 3 2 C3.886875 2.20625 4.77375 2.4125 5.6875 2.625 C9.92278682 4.38304358 11.30493333 6.35373333 14 10 C12 9 10 8 8 7 C8 6.34 8 5.68 8 5 C5.36 4.34 2.72 3.68 0 3 C0 2.01 0 1.02 0 0 Z " fill="#8DD292" transform="translate(382,114)"/>
<path d="M0 0 C3.96 0 7.92 0 12 0 C12.33 0.99 12.66 1.98 13 3 C8.71 3 4.42 3 0 3 C0 2.01 0 1.02 0 0 Z " fill="#8F8F8F" transform="translate(170,18)"/>
<path d="M0 0 C-0.33 0.99 -0.66 1.98 -1 3 C-2.65 3.33 -4.3 3.66 -6 4 C-6 4.66 -6 5.32 -6 6 C-8.2727675 7.49524178 -10.5679943 8.78399715 -13 10 C-11.21019997 5.44414539 -7.97723055 3.12984603 -3.8125 0.75 C-2 0 -2 0 0 0 Z " fill="#82CE87" transform="translate(747,114)"/>
<path d="M0 0 C0.66 0.33 1.32 0.66 2 1 C-1.63 4.63 -5.26 8.26 -9 12 C-9.66 11.67 -10.32 11.34 -11 11 C-7.6189962 6.86378916 -4.33409466 3.18683431 0 0 Z " fill="#E1E1E1" transform="translate(107,97)"/>
<path d="M0 0 C1.9375 0.8125 1.9375 0.8125 4 2 C4.33 2.99 4.66 3.98 5 5 C5.99 5.33 6.98 5.66 8 6 C9.1875 9.0625 9.1875 9.0625 10 12 C9.34 12 8.68 12 8 12 C5.67980703 8.80973467 3.65356922 5.58273331 2 2 C1.34 2 0.68 2 0 2 C0 1.34 0 0.68 0 0 Z " fill="#909090" transform="translate(200,27)"/>
<path d="M0 0 C2.97 0 5.94 0 9 0 C8.67 0.99 8.34 1.98 8 3 C5.36 3 2.72 3 0 3 C0 2.01 0 1.02 0 0 Z " fill="#69C46F" transform="translate(369,158)"/>
<path d="M0 0 C1.46484375 1.26953125 2.9296875 2.5390625 4.39453125 3.80859375 C6.10712971 5.20871231 6.10712971 5.20871231 9 6 C9 6.66 9 7.32 9 8 C9.66 8 10.32 8 11 8 C11 8.66 11 9.32 11 10 C9.68 9.67 8.36 9.34 7 9 C7 8.34 7 7.68 7 7 C6.21625 6.773125 5.4325 6.54625 4.625 6.3125 C2 5 2 5 0.6875 2.375 C0.460625 1.59125 0.23375 0.8075 0 0 Z " fill="#90D394" transform="translate(350,158)"/>
<path d="M0 0 C0 0.99 0 1.98 0 3 C-0.78375 3.0825 -1.5675 3.165 -2.375 3.25 C-3.24125 3.4975 -4.1075 3.745 -5 4 C-5.69937532 5.31647119 -6.36729133 6.65022151 -7 8 C-9.05859375 8.625 -9.05859375 8.625 -11 9 C-10.06725891 7.87105124 -9.12859878 6.74699124 -8.1875 5.625 C-7.66542969 4.99851562 -7.14335938 4.37203125 -6.60546875 3.7265625 C-4.60437547 1.57453518 -3.0502442 0 0 0 Z " fill="#5BBE61" transform="translate(655,114)"/>
<path d="M0 0 C4.77576339 0.4682121 8.04476345 1.24331998 12 4 C11.67 4.66 11.34 5.32 11 6 C9.02 5.34 7.04 4.68 5 4 C5 3.34 5 2.68 5 2 C3.35 1.67 1.7 1.34 0 1 C0 0.67 0 0.34 0 0 Z " fill="#868686" transform="translate(186,20)"/>
<path d="M0 0 C0.33 0.66 0.66 1.32 1 2 C-0.19907511 5.37921168 -1.87487934 7.25360904 -5 9 C-7.25 8.6875 -7.25 8.6875 -9 8 C-8.01 7.67 -7.02 7.34 -6 7 C-5.34 6.01 -4.68 5.02 -4 4 C-3.34 4 -2.68 4 -2 4 C-1.34 2.68 -0.68 1.36 0 0 Z " fill="#605949" transform="translate(184,187)"/>
<path d="M0 0 C0.99 0 1.98 0 3 0 C3.680625 1.85625 3.680625 1.85625 4.375 3.75 C5.4384007 6.59245495 6.55192483 9.32663046 8 12 C3.92798692 9.1385854 1.90178748 6.60432758 0 2 C0 1.34 0 0.68 0 0 Z " fill="#94D598" transform="translate(729,151)"/>
<path d="M0 0 C1.508013 0.92455559 3.00624917 1.8650747 4.5 2.8125 C5.75296875 3.59560547 5.75296875 3.59560547 7.03125 4.39453125 C7.6809375 4.92433594 8.330625 5.45414063 9 6 C9 6.99 9 7.98 9 9 C8.01 8.67 7.02 8.34 6 8 C6 7.34 6 6.68 6 6 C5.38125 5.7525 4.7625 5.505 4.125 5.25 C1.62519797 3.77952822 1.16683978 2.58596924 0 0 Z " fill="#94D598" transform="translate(460,159)"/>
<path d="M0 0 C5 2 5 2 10 4 C10 4.99 10 5.98 10 7 C5.56541027 5.6062718 3.12621626 3.39417765 0 0 Z " fill="#7ECC82" transform="translate(737,163)"/>
<path d="M0 0 C0.66 1.32 1.32 2.64 2 4 C0.35 5.98 -1.3 7.96 -3 10 C-3.66 9.67 -4.32 9.34 -5 9 C-4.360625 8.071875 -3.72125 7.14375 -3.0625 6.1875 C-0.91377907 3.15780057 -0.91377907 3.15780057 0 0 Z M2 2 C2.99 2.495 2.99 2.495 4 3 C3.01 3.495 3.01 3.495 2 4 C2 3.34 2 2.68 2 2 Z " fill="#D4D3D3" transform="translate(241,142)"/>
<path d="M0 0 C0 3 0 3 -1.53125 4.60546875 C-2.1809375 5.12753906 -2.830625 5.64960937 -3.5 6.1875 C-4.1496875 6.71730469 -4.799375 7.24710937 -5.46875 7.79296875 C-5.9740625 8.19128906 -6.479375 8.58960937 -7 9 C-6.19095897 4.20719998 -3.74015409 2.86479887 0 0 Z " fill="#8BD18F" transform="translate(357,117)"/>
<path d="M0 0 C0.33 0.99 0.66 1.98 1 3 C0.195625 3.45375 -0.60875 3.9075 -1.4375 4.375 C-4.08856572 5.74725665 -4.08856572 5.74725665 -5 8 C-5.99 8 -6.98 8 -8 8 C-7.67 7.01 -7.34 6.02 -7 5 C-6.34 5 -5.68 5 -5 5 C-5 4.34 -5 3.68 -5 3 C-2.5 1.375 -2.5 1.375 0 0 Z " fill="#7B7B7B" transform="translate(150,10)"/>
<path d="M0 0 C5.61 0.33 11.22 0.66 17 1 C17 1.33 17 1.66 17 2 C8.585 2.495 8.585 2.495 0 3 C0 2.01 0 1.02 0 0 Z " fill="#53BB59" transform="translate(655,167)"/>
<path d="M0 0 C3 3.75 3 3.75 3 6 C4.32 6.33 5.64 6.66 7 7 C6.67 7.99 6.34 8.98 6 10 C3.5625 8.9375 3.5625 8.9375 1 7 C0.1875 3.3125 0.1875 3.3125 0 0 Z " fill="#83CE88" transform="translate(773,160)"/>
<path d="M0 0 C0.66 0.33 1.32 0.66 2 1 C0.515 4.96 0.515 4.96 -1 9 C-0.34 9.33 0.32 9.66 1 10 C-0.32 10 -1.64 10 -3 10 C-2.49287967 6.28111761 -1.88391785 3.26545761 0 0 Z " fill="#989898" transform="translate(141,41)"/>
<path d="M0 0 C0 0.66 0 1.32 0 2 C-1.98 2 -3.96 2 -6 2 C-6 2.66 -6 3.32 -6 4 C-7.32 4 -8.64 4 -10 4 C-9.67 3.01 -9.34 2.02 -9 1 C-5.846632 0.29925156 -3.27275026 0 0 0 Z " fill="#818181" transform="translate(168,5)"/>
<path d="M0 0 C2.64 0 5.28 0 8 0 C8 0.66 8 1.32 8 2 C5.36 2.33 2.72 2.66 0 3 C0 2.01 0 1.02 0 0 Z " fill="#7BCB81" transform="translate(610,168)"/>
<path d="M0 0 C3 3.75 3 3.75 3 6 C4.32 6.33 5.64 6.66 7 7 C6.67 7.99 6.34 8.98 6 10 C1.77202073 6.91709845 1.77202073 6.91709845 0 5 C-0.375 2.1875 -0.375 2.1875 0 0 Z " fill="#80CD84" transform="translate(706,160)"/>
<path d="M0 0 C3.5875213 1.33250791 6.8364623 2.830717 10 5 C10 5.66 10 6.32 10 7 C9.34 7 8.68 7 8 7 C8 6.34 8 5.68 8 5 C7.236875 4.9175 6.47375 4.835 5.6875 4.75 C2.47626739 3.85384206 1.70625501 2.78388975 0 0 Z " fill="#87D08C" transform="translate(586,163)"/>
<path d="M0 0 C0.928125 0.20625 1.85625 0.4125 2.8125 0.625 C-0.12470508 2.14799523 -3.1043649 3.42600302 -6.1875 4.625 C-6.1875 3.635 -6.1875 2.645 -6.1875 1.625 C-3.1875 -0.375 -3.1875 -0.375 0 0 Z " fill="#62C167" transform="translate(365.1875,114.375)"/>
<path d="M0 0 C0.66 0.33 1.32 0.66 2 1 C-0.38957269 4.24299151 -2.2047869 6.50902342 -6 8 C-4.55746343 4.63408134 -2.66735273 2.48952921 0 0 Z " fill="#A0D9A3" transform="translate(686,159)"/>
<path d="M0 0 C0 1.98 0 3.96 0 6 C-1.32 6 -2.64 6 -4 6 C-4 4.68 -4 3.36 -4 2 C-1 0 -1 0 0 0 Z " fill="#5CB353" transform="translate(177,154)"/>
<path d="M0 0 C3.78611227 0.54087318 5.55400767 2.11722332 8 5 C8 5.66 8 6.32 8 7 C7.34 7 6.68 7 6 7 C6 6.34 6 5.68 6 5 C5.38125 4.731875 4.7625 4.46375 4.125 4.1875 C2 3 2 3 0 0 Z " fill="#81CE86" transform="translate(440,137)"/>
<path d="M0 0 C0 0.99 0 1.98 0 3 C-4.455 3.495 -4.455 3.495 -9 4 C-9 3.34 -9 2.68 -9 2 C-2.25 0 -2.25 0 0 0 Z " fill="#858585" transform="translate(201,51)"/>
<path d="M0 0 C0 0.99 0 1.98 0 3 C-0.9590625 3.433125 -0.9590625 3.433125 -1.9375 3.875 C-4.15206079 4.82823451 -4.15206079 4.82823451 -5 7 C-5.66 7 -6.32 7 -7 7 C-3.86206897 0 -3.86206897 0 0 0 Z " fill="#7CCB80" transform="translate(319,101)"/>
<path d="M0 0 C-5.75 4 -5.75 4 -8 4 C-8 3.01 -8 2.02 -8 1 C-3.375 -1.125 -3.375 -1.125 0 0 Z " fill="#86CF8B" transform="translate(562,166)"/>
<path d="M0 0 C1.13643966 3.40931897 0.86747764 4.00335456 -0.4375 7.1875 C-0.86869141 8.26064453 -0.86869141 8.26064453 -1.30859375 9.35546875 C-1.53675781 9.89816406 -1.76492188 10.44085938 -2 11 C-2.33 11 -2.66 11 -3 11 C-3.39253254 6.55129785 -2.15305957 3.85756507 0 0 Z " fill="#83CE87" transform="translate(681,142)"/>
<path d="" fill="#94D597" transform="translate(0,0)"/>
<path d="" fill="#A3DBA5" transform="translate(0,0)"/>
</svg>
